<svg width="17" height="95" viewBox="0 0 17 95" fill="none" xmlns="http://www.w3.org/2000/svg">
<path d="M2.77477 91.2568L2.77477 89.4527L2.77477 87.6361L2.77477 85.832L2.77477 84.028L2.77477 82.2239L2.77477 80.4073L2.77478 78.6032L2.77478 76.7991L2.77478 74.9825L2.77478 73.1784L2.77478 71.3744L2.77478 69.5703L2.77478 67.7537L2.77478 65.9496L2.77478 64.1455L2.77478 62.3289L2.77478 60.5248L2.77478 58.7208L2.77478 56.9167L2.77478 55.1001L2.77478 53.296L2.77478 51.4919L2.77478 49.6878L2.77478 47.8712L2.77478 46.0672L2.77478 44.2631L2.77478 42.4465L2.77478 40.6424L2.77478 38.8383L2.77478 37.0342L2.77478 35.2176L2.77478 33.4135L2.77478 31.6095L2.77478 29.7929L2.77478 27.9888L2.77478 26.1847L2.77478 24.3806L2.77478 22.564L2.77478 20.7599L2.77478 18.9559L2.77478 17.1518L2.77478 15.3352L2.77478 13.5311L2.77478 11.727L2.77478 9.91041L2.77478 8.10633L2.77478 6.30225L2.77478 4.49817L2.77478 2.68157L2.77478 0.877487L0.655389 0.877487L0.655389 2.68157L0.655389 4.49817L0.655389 6.30225L0.655389 8.10633L0.655388 9.91041L0.655388 11.727L0.655388 13.5311L0.655388 15.3352L0.655388 17.1518L0.655388 18.9559L0.655388 20.7599L0.655388 22.564L0.655387 24.3806L0.655387 26.1847L0.655387 27.9888L0.655387 29.7929L0.655387 31.6095L0.655387 33.4135L0.655387 35.2176L0.655387 37.0342L0.655387 38.8383L0.655386 40.6424L0.655386 42.4465L0.655386 44.2631L0.655386 46.0672L0.655386 47.8712L0.655386 49.6878L0.655386 51.4919L0.655386 53.296L0.655385 55.1001L0.655385 56.9167L0.655385 58.7208L0.655385 60.5248L0.655385 62.3289L0.655385 64.1455L0.655385 65.9496L0.655385 67.7537L0.655384 69.5703L0.655384 71.3744L0.655384 73.1784L0.655384 74.9825L0.655384 76.7991L0.655384 78.6032L0.655384 80.4073L0.655384 82.2239L0.655384 84.028L0.655383 85.832L0.655383 87.6361L0.655383 89.4527L0.655383 91.2568L0.655383 93.0609L0.655383 94.8775L2.77477 94.8775L2.77477 93.0609L2.77477 91.2568Z" fill="#FFE600"/>
<path d="M16.6554 93.0609L16.6554 91.2568L16.6554 89.4527L16.6554 87.6361L16.6554 85.832L16.6554 84.028L16.6554 82.2239L16.6554 80.4073L16.6554 78.6032L16.6554 76.7991L16.6554 74.9825L16.6554 73.1784L16.6554 71.3744L16.6554 69.5703L16.6554 67.7537L16.6554 65.9496L16.6554 64.1455L16.6554 62.3289L16.6554 60.5248L16.6554 58.7208L16.6554 56.9167L16.6554 55.1001L16.6554 53.296L16.6554 51.4919L16.6554 49.6878L16.6554 47.8712L16.6554 46.0672L16.6554 44.2631L16.6554 42.4465L16.6554 40.6424L16.6554 38.8383L16.6554 37.0342L16.6554 35.2176L16.6554 33.4135L16.6554 31.6095L16.6554 29.7929L16.6554 27.9888L16.6554 26.1847L16.6554 24.3806L16.6554 22.564L16.6554 20.7599L16.6554 18.9559L16.6554 17.1518L16.6554 15.3352L16.6554 13.5311L16.6554 11.727L16.6554 9.91041L16.6554 8.10633L16.6554 6.30225L16.6554 4.49817L16.6554 2.68157L16.6554 0.877487L14.536 0.877487L14.536 2.68157L14.536 4.49817L14.536 6.30225L14.536 8.10633L14.536 9.91041L14.536 11.727L14.536 13.5311L14.536 15.3352L14.536 17.1518L14.536 18.9559L14.536 20.7599L14.536 22.564L14.536 24.3806L14.536 26.1847L14.536 27.9888L14.536 29.7929L14.536 31.6095L14.536 33.4135L14.536 35.2176L14.536 37.0342L14.536 38.8383L14.536 40.6424L14.536 42.4465L14.536 44.2631L14.536 46.0672L14.536 47.8712L14.536 49.6878L14.536 51.4919L14.536 53.296L14.536 55.1001L14.536 56.9167L14.536 58.7208L14.536 60.5248L14.536 62.3289L14.536 64.1455L14.536 65.9496L14.536 67.7537L14.536 69.5703L14.536 71.3744L14.536 73.1784L14.536 74.9825L14.536 76.7991L14.536 78.6032L14.536 80.4073L14.536 82.2239L14.536 84.028L14.536 85.832L14.536 87.6361L14.536 89.4527L14.536 91.2568L14.536 93.0609L14.536 94.8775L16.6554 94.8775L16.6554 93.0609Z" fill="#FFE600"/>
<path d="M8.63336 6.74226L8.63336 0.877441L2.77114 0.877441L2.77114 6.74226L8.63336 6.74226Z" fill="#303030"/>
<path d="M8.63336 12.6071L8.63336 6.74225L2.77114 6.74225L2.77114 12.6071L8.63336 12.6071Z" fill="#FFE600"/>
<path d="M8.63336 18.4719L8.63336 12.6071L2.77114 12.6071L2.77114 18.4719L8.63336 18.4719Z" fill="#303030"/>
<path d="M8.63336 24.3774L8.63336 18.5126L2.77114 18.5126L2.77114 24.3774L8.63336 24.3774Z" fill="#FFE600"/>
<path d="M8.63336 30.2423L8.63336 24.3774L2.77114 24.3774L2.77114 30.2423L8.63336 30.2423Z" fill="#303030"/>
<path d="M8.63336 36.1071L8.63336 30.2422L2.77114 30.2422L2.77114 36.1071L8.63336 36.1071Z" fill="#FFE600"/>
<path d="M8.63336 41.9719L8.63336 36.1071L2.77114 36.1071L2.77114 41.9719L8.63336 41.9719Z" fill="#303030"/>
<path d="M8.63336 47.8774L8.63336 42.0126L2.77114 42.0126L2.77114 47.8774L8.63336 47.8774Z" fill="#FFE600"/>
<path d="M8.63336 53.7423L8.63336 47.8774L2.77114 47.8774L2.77114 53.7423L8.63336 53.7423Z" fill="#303030"/>
<path d="M8.63336 59.6071L8.63336 53.7423L2.77114 53.7423L2.77114 59.6071L8.63336 59.6071Z" fill="#FFE600"/>
<path d="M8.63336 65.5126L8.63336 59.6478L2.77114 59.6478L2.77114 65.5126L8.63336 65.5126Z" fill="#303030"/>
<path d="M8.63336 71.3774L8.63336 65.5126L2.77114 65.5126L2.77114 71.3774L8.63336 71.3774Z" fill="#FFE600"/>
<path d="M8.63336 77.2423L8.63336 71.3774L2.77114 71.3774L2.77114 77.2423L8.63336 77.2423Z" fill="#303030"/>
<path d="M8.63336 83.1071L8.63336 77.2422L2.77114 77.2422L2.77114 83.1071L8.63336 83.1071Z" fill="#FFE600"/>
<path d="M8.63336 89.0126L8.63336 83.1478L2.77114 83.1478L2.77114 89.0126L8.63336 89.0126Z" fill="#303030"/>
<path d="M8.63336 94.8774L8.63336 89.0126L2.77114 89.0126L2.77114 94.8774L8.63336 94.8774Z" fill="#FFE600"/>
<path d="M14.5362 6.74226L14.5362 0.877441L8.67398 0.877441L8.67398 6.74226L14.5362 6.74226Z" fill="#FFE600"/>
<path d="M14.5362 12.6071L14.5362 6.74225L8.67398 6.74225L8.67398 12.6071L14.5362 12.6071Z" fill="#303030"/>
<path d="M14.5362 18.4719L14.5362 12.6071L8.67398 12.6071L8.67398 18.4719L14.5362 18.4719Z" fill="#FFE600"/>
<path d="M14.5362 24.3774L14.5362 18.5126L8.67398 18.5126L8.67398 24.3774L14.5362 24.3774Z" fill="#303030"/>
<path d="M14.5362 30.2423L14.5362 24.3774L8.67398 24.3774L8.67398 30.2423L14.5362 30.2423Z" fill="#FFE600"/>
<path d="M14.5362 36.1071L14.5362 30.2422L8.67398 30.2422L8.67398 36.1071L14.5362 36.1071Z" fill="#303030"/>
<path d="M14.5362 41.9719L14.5362 36.1071L8.67398 36.1071L8.67398 41.9719L14.5362 41.9719Z" fill="#FFE600"/>
<path d="M14.5362 47.8774L14.5362 42.0126L8.67398 42.0126L8.67398 47.8774L14.5362 47.8774Z" fill="#303030"/>
<path d="M14.5362 53.7422L14.5362 47.8774L8.67398 47.8774L8.67398 53.7422L14.5362 53.7422Z" fill="#FFE600"/>
<path d="M14.5362 59.6071L14.5362 53.7422L8.67398 53.7422L8.67398 59.6071L14.5362 59.6071Z" fill="#303030"/>
<path d="M14.5362 65.5126L14.5362 59.6478L8.67398 59.6478L8.67398 65.5126L14.5362 65.5126Z" fill="#FFE600"/>
<path d="M14.5362 71.3774L14.5362 65.5126L8.67398 65.5126L8.67398 71.3774L14.5362 71.3774Z" fill="#303030"/>
<path d="M14.5362 77.2422L14.5362 71.3774L8.67398 71.3774L8.67398 77.2422L14.5362 77.2422Z" fill="#FFE600"/>
<path d="M14.5362 83.1071L14.5362 77.2422L8.67398 77.2422L8.67398 83.1071L14.5362 83.1071Z" fill="#303030"/>
<path d="M14.5362 89.0126L14.5362 83.1478L8.67398 83.1478L8.67398 89.0126L14.5362 89.0126Z" fill="#FFE600"/>
<path d="M14.5362 94.8774L14.5362 89.0126L8.67398 89.0126L8.67398 94.8774L14.5362 94.8774Z" fill="#303030"/>
</svg>
