<svg width="709" height="57" viewBox="0 0 709 57" fill="none" xmlns="http://www.w3.org/2000/svg">
<path d="M708.846 0.977402H0V3.96098H708.846V0.977402Z" fill="white"/>
<path d="M708.846 53.2703H0V56.2538H708.846V53.2703Z" fill="white"/>
<path d="M8.93477 27.8774H0V30.861H8.93477V27.8774Z" fill="white"/>
<path d="M682.186 30.861H664.476V27.8774H682.186V30.861ZM646.75 30.861H629.04V27.8774H646.75V30.861ZM611.33 30.861H593.62V27.8774H611.33V30.861ZM575.894 30.861H558.184V27.8774H575.894V30.861ZM540.458 30.861H522.748V27.8774H540.458V30.861ZM505.022 30.861H487.312V27.8774H505.022V30.861ZM469.586 30.861H451.876V27.8774H469.586V30.861ZM434.15 30.861H416.44V27.8774H434.15V30.861ZM398.714 30.861H381.004V27.8774H398.714V30.861ZM363.278 30.861H345.568V27.8774H363.278V30.861ZM327.842 30.861H310.132V27.8774H327.842V30.861ZM292.406 30.861H274.696V27.8774H292.406V30.861ZM256.986 30.861H239.276V27.8774H256.986V30.861ZM221.55 30.861H203.84V27.8774H221.55V30.861ZM186.115 30.861H168.405V27.8774H186.115V30.861ZM150.679 30.861H132.969V27.8774H150.679V30.861ZM115.243 30.861H97.5327V27.8774H115.243V30.861ZM79.8067 30.861H62.0967V27.8774H79.8067V30.861ZM44.3708 30.861H26.6608V27.8774H44.3708V30.861V30.861Z" fill="white"/>
<path d="M708.846 27.8774H699.912V30.861H708.846V27.8774Z" fill="white"/>
</svg>
