<svg width="27" height="24" viewBox="0 0 27 24" fill="none" xmlns="http://www.w3.org/2000/svg">
<path d="M26.1818 2.18182C25.776 6.66 23.1185 11.0084 18.684 12.4778C19.008 11.8756 19.3342 11.2287 19.6462 10.5327C22.8262 8.87345 24.0502 5.89636 24.516 3.71345H21.5836C21.648 3.22255 21.696 2.70764 21.7353 2.18073H26.1818V2.18182ZM0 2.18182C0.405818 6.66 3.06327 11.0084 7.49782 12.4778C7.17382 11.8756 6.84764 11.2287 6.53564 10.5327C3.35564 8.87345 2.13164 5.89636 1.66582 3.71345H4.59818C4.53491 3.22364 4.48691 2.70764 4.44764 2.18182H0ZM20.7273 0C20.7273 10.6942 15.1702 14.2396 14.6269 18.5455H11.5669C11.0236 14.2396 5.45455 10.6942 5.45455 0H20.7273ZM12.7582 14.2396C10.7007 10.6833 9.88364 6.132 9.87164 2.18182H8.01818C8.24182 7.25236 10.1891 11.2724 12.7582 14.2396ZM14.6596 19.6364H11.5331C11.3127 20.9313 10.8458 22.4935 8.72836 22.4935V24H17.4556V22.4935C15.2749 22.4935 14.8691 20.9313 14.6596 19.6364Z" fill="black"/>
</svg>
