<svg width="15" height="17" viewBox="0 0 15 17" fill="none" xmlns="http://www.w3.org/2000/svg">
<path fill-rule="evenodd" clip-rule="evenodd" d="M12.0417 17H2.125C1.343 17 0.708333 16.3653 0.708333 15.5833V4.25H13.4583V15.5833C13.4583 16.3653 12.8237 17 12.0417 17ZM7.08333 9.62342L9.41588 7.29087L10.4175 8.29246L8.08492 10.625L10.4175 12.9575L9.41588 13.9591L7.08333 11.6266L4.75079 13.9591L3.74921 12.9575L6.08175 10.625L3.74921 8.29246L4.75079 7.29087L7.08333 9.62342ZM14.1667 3.54167H0V2.125H4.25V1.0625C4.25 0.476708 4.72671 0 5.3125 0H8.85417C9.43854 0 9.91667 0.475292 9.91667 1.0625V2.125H14.1667V3.54167ZM8.5 1.41667H5.66667V2.125H8.5V1.41667Z" fill="black"/>
</svg>
