<svg width="143" height="35" viewBox="0 0 143 35" fill="none" xmlns="http://www.w3.org/2000/svg">
<path fill-rule="evenodd" clip-rule="evenodd" d="M16.2146 0.426835C12.8225 0.779867 9.45639 2.21566 6.8717 4.41185C2.06255 8.49831 -0.181882 14.6669 0.869854 20.9075C1.69821 25.8228 4.71807 30.2663 9.00977 32.885C9.92083 33.4409 10.9847 33.9634 11.9152 34.3119C12.8071 34.646 13.2137 34.6392 13.5283 34.2848L13.7279 34.0599V32.2303V30.4006L13.5325 30.451C12.6835 30.6701 11.3705 30.6865 10.5487 30.4882C9.71998 30.2883 9.15947 29.9808 8.60778 29.4234C8.20969 29.0213 8.06688 28.8007 7.65352 27.9496C7.21856 27.0539 7.11092 26.8922 6.62886 26.4108C6.33258 26.1149 5.94046 25.7713 5.75751 25.6471C5.57456 25.523 5.3698 25.3368 5.30252 25.2335C5.19324 25.0657 5.19168 25.034 5.28767 24.9373C5.46628 24.7576 5.90693 24.6904 6.33656 24.7775C7.26084 24.9648 8.04493 25.5652 8.7567 26.6303C9.2561 27.3776 9.77447 27.8626 10.3886 28.1571C10.8353 28.3713 10.8818 28.3785 11.8096 28.3764C12.646 28.3745 12.8318 28.3516 13.2608 28.1977L13.753 28.0211L13.9045 27.4491C14.0763 26.8002 14.2486 26.437 14.6115 25.9586C14.7502 25.7757 14.8478 25.6261 14.8282 25.6261C14.6022 25.6261 13.2508 25.3757 12.701 25.2319C10.0553 24.5402 8.272 22.9855 7.50205 20.6995C7.19227 19.7796 7.07099 19.1343 6.9836 17.9406C6.82737 15.8052 7.22453 14.2628 8.31122 12.7851L8.72593 12.2212L8.58618 11.7922C8.47257 11.4435 8.44565 11.1558 8.44216 10.2551C8.4379 9.13381 8.51733 8.61577 8.80686 7.87796L8.91201 7.60987H9.38669C10.2715 7.60987 11.4726 8.05276 12.8737 8.89574L13.7076 9.39747L14.4815 9.22518C15.8168 8.92784 16.4614 8.86242 18.0619 8.86171C19.6652 8.86099 20.2865 8.92426 21.6575 9.22796L22.4466 9.40284L23.0429 9.03014C23.8624 8.51804 25.0944 7.93709 25.7397 7.75857C26.0374 7.67621 26.4906 7.60987 26.7558 7.60987H27.2344L27.3392 7.86224C27.7572 8.86878 27.8727 10.6342 27.5908 11.7068L27.4441 12.2648L27.7895 12.7077C28.4891 13.6049 28.981 14.7842 29.1507 15.9711C29.314 17.1133 29.151 19.0413 28.7866 20.2794C27.9169 23.2338 25.7462 24.9524 22.2182 25.4799C21.9447 25.5208 21.6149 25.5722 21.4854 25.5943L21.2499 25.6343L21.5123 25.9266C21.6566 26.0873 21.8669 26.4234 21.9797 26.6737C22.3731 27.5468 22.3937 27.7579 22.3948 30.9367C22.3959 34.1412 22.4077 34.2397 22.8131 34.4507C23.1724 34.6377 23.5463 34.5874 24.4409 34.232C26.7582 33.3116 28.6479 32.0626 30.4283 30.275C33.1874 27.5046 34.7971 24.2337 35.408 20.1569C35.5337 19.3175 35.5368 16.4399 35.4128 15.6171C34.7917 11.4946 33.1613 8.19611 30.3653 5.40503C26.646 1.69212 21.4889 -0.122159 16.2146 0.426835ZM52.6982 5.86973C50.3174 6.06383 48.5656 6.60704 47.0805 7.61172C46.3826 8.08386 45.2851 9.18457 44.8007 9.89814C43.6753 11.5561 42.9909 13.5656 42.5976 16.3677C42.4911 17.1266 42.4674 17.7498 42.4686 19.7637C42.4699 21.9892 42.486 22.3314 42.634 23.2659C43.4786 28.5985 45.8927 31.5309 50.3736 32.6673C52.0884 33.1021 55.2867 33.206 57.1509 32.8873C58.7883 32.6073 60.5918 31.9852 61.6859 31.3229L62.0766 31.0863L62.0957 24.4063L62.1147 17.7261L61.9634 17.601C61.8231 17.4849 61.5028 17.4759 57.5184 17.4759H53.2246L53.0502 17.6514L52.8758 17.8268V19.959C52.8758 21.773 52.8923 22.1148 52.9864 22.25C53.0956 22.4068 53.1196 22.4089 54.8337 22.4089H56.5703V24.9784C56.5703 26.3917 56.5441 27.5643 56.5119 27.5843C56.2103 27.7719 53.8645 27.8953 52.9061 27.7739C49.9936 27.4053 48.4985 25.3444 48.11 21.1628C48.0065 20.0494 48.0606 17.9633 48.2195 16.9397C48.6874 13.9247 49.9459 12.1529 52.1031 11.4721C53.8337 10.9261 56.9131 11.0205 59.1169 11.6873C60.0384 11.9662 60.0398 11.9654 60.2929 10.9113C60.8413 8.62828 61.1087 7.38402 61.0717 7.28722C60.9843 7.05787 59.8796 6.60468 58.7319 6.32728C57.1988 5.95674 54.3144 5.73797 52.6982 5.86973ZM86.8126 6.95421C86.7041 7.07481 86.695 8.06263 86.695 19.7105C86.695 31.0931 86.706 32.3473 86.8066 32.4486C86.9041 32.5465 87.2447 32.5609 89.4659 32.5609C91.6872 32.5609 92.0278 32.5465 92.1252 32.4486C92.2247 32.3484 92.2368 31.7506 92.2368 26.9436V21.551H95.9314H99.6259V26.9701C99.6259 31.0897 99.6464 32.4099 99.7112 32.4751C99.7743 32.5386 100.462 32.5609 102.364 32.5609C104.762 32.5609 104.94 32.5522 105.05 32.4301C105.159 32.3095 105.168 31.3221 105.168 19.6797C105.168 7.54481 105.163 7.05551 105.038 6.94176C104.922 6.83631 104.633 6.82344 102.384 6.82344C100.034 6.82344 99.8531 6.83238 99.744 6.95363C99.6382 7.07124 99.6252 7.53365 99.6086 11.7615L99.5904 16.4392H95.9314H92.2724L92.2541 11.7615C92.2375 7.53365 92.2245 7.07124 92.1188 6.95363C92.0097 6.83238 91.8282 6.82344 89.4659 6.82344C87.0996 6.82344 86.9223 6.83217 86.8126 6.95421ZM126.158 6.92489C126.023 7.02463 126.02 7.24733 126.002 19.6265C125.986 30.8414 125.996 32.2451 126.093 32.3938L126.201 32.5609L128.029 32.5598C129.035 32.5592 129.903 32.5296 129.959 32.494C130.015 32.4584 130.111 32.1692 130.172 31.8515L130.283 31.2736L130.639 31.5302C131.979 32.4988 133.899 33.0613 135.864 33.0613C139.931 33.0613 141.796 31.2172 142.514 26.484C142.612 25.8342 142.639 25.1896 142.64 23.4098C142.642 20.9574 142.574 20.338 142.144 18.9209C141.132 15.5823 138.565 14.0649 134.795 14.5774C133.688 14.7278 132.742 15.0362 131.653 15.6011C131.624 15.6159 131.592 13.6925 131.582 11.3271C131.563 7.16425 131.558 7.02312 131.424 6.92489C131.22 6.77483 126.362 6.77483 126.158 6.92489ZM66.8086 7.50856C66.3072 7.64425 65.6637 8.04225 65.3384 8.41788C65.1954 8.58296 64.9786 8.92712 64.8565 9.18271C64.6457 9.62368 64.6344 9.69117 64.6344 10.5053C64.6344 11.3195 64.6457 11.387 64.8565 11.8279C65.1428 12.4271 65.4962 12.8305 66.01 13.1446C67.037 13.7723 68.2881 13.7605 69.2897 13.1137C70.2708 12.4802 70.8367 11.1919 70.6455 10.0273C70.3438 8.18882 68.5782 7.02977 66.8086 7.50856ZM75.0963 10.0449C74.9816 10.1135 74.972 10.3151 74.972 12.6365V15.1539L73.8174 15.4328C72.1861 15.827 72.2333 15.8107 72.1413 16.0139C72.0222 16.277 72.0303 19.1662 72.1508 19.4062L72.2406 19.5849L73.6015 19.6043L74.9623 19.6237L74.9902 24.0369C75.0171 28.2913 75.0236 28.4714 75.1728 29.0447C75.8571 31.6764 77.5842 32.8945 80.8379 33.0401C81.787 33.0826 82.599 32.9932 83.711 32.7238C84.4664 32.5409 84.4215 32.6804 84.4215 30.5139C84.4215 28.2488 84.4927 28.3938 83.4268 28.4879C81.9527 28.618 81.0202 28.3038 80.6032 27.5362C80.4891 27.3261 80.4765 26.9727 80.4582 23.4634L80.438 19.6207H82.309C83.6694 19.6207 84.2031 19.5973 84.2652 19.5349C84.3277 19.472 84.3504 18.8812 84.3504 17.3227C84.3504 15.2063 84.3496 15.1957 84.1925 15.0849C84.0597 14.9913 83.7491 14.9736 82.2386 14.9736H80.4427L80.4417 12.5965C80.441 11.2248 80.4121 10.174 80.3732 10.1121C80.3158 10.0206 79.9334 10.0024 77.7633 9.98772C76.1008 9.97657 75.1776 9.99637 75.0963 10.0449ZM65.0962 15.0266C64.8116 15.138 64.8166 14.982 64.8143 23.7799L64.812 32.2645L64.9992 32.4127C65.1803 32.5561 65.2655 32.5609 67.628 32.5609C69.9749 32.5609 70.0751 32.5553 70.2117 32.4179C70.3522 32.2765 70.3538 32.1796 70.3538 23.7673C70.3538 15.3549 70.3522 15.258 70.2117 15.1166C70.0749 14.979 69.9788 14.9738 67.6362 14.9793C66.2978 14.9824 65.1548 15.0037 65.0962 15.0266ZM107.574 15.1633C107.494 15.2608 107.473 16.2606 107.456 20.8649C107.434 26.7577 107.48 28.1634 107.727 29.2007C108.147 30.9584 109.236 32.1492 110.923 32.6918C111.78 32.9677 112.509 33.0613 113.8 33.0613C115.967 33.0613 116.841 32.816 119.599 31.4334C119.623 31.4214 119.664 31.603 119.691 31.8372C119.72 32.1003 119.795 32.3349 119.886 32.4513L120.033 32.6396L121.684 32.6181C122.954 32.6016 123.362 32.574 123.452 32.4985C123.56 32.4083 123.569 31.7107 123.569 23.8411C123.569 15.6397 123.564 15.2768 123.439 15.1634C123.324 15.0581 123.037 15.0451 120.822 15.0451C118.502 15.0451 118.326 15.0539 118.216 15.1759C118.109 15.2954 118.099 15.8374 118.099 21.5009V27.6953L117.512 27.9784C116.43 28.5012 115.27 28.68 114.408 28.457C113.815 28.3036 113.508 28.0618 113.276 27.564L113.09 27.1632L113.069 21.2318C113.051 15.8882 113.037 15.2879 112.934 15.1728C112.828 15.0547 112.626 15.0451 110.245 15.0451C107.938 15.0451 107.662 15.0573 107.574 15.1633ZM135.597 19.2882C136.72 19.8414 137.211 21.1798 137.211 23.6933C137.211 26.054 136.908 27.3832 136.231 27.9988C135.804 28.3873 135.331 28.5215 134.404 28.5175C133.362 28.5131 132.723 28.3598 131.687 27.8649L131.456 27.7546V23.7908V19.827L131.971 19.5923C132.409 19.3925 132.825 19.2605 133.552 19.09C133.63 19.0717 134.033 19.0652 134.448 19.0755C135.102 19.0919 135.256 19.1203 135.597 19.2882ZM6.76513 25.3615C6.76513 25.4928 6.91341 25.6261 7.05934 25.6261C7.22808 25.6261 7.29302 25.499 7.18886 25.3727C7.08229 25.2435 6.76513 25.2351 6.76513 25.3615ZM7.49757 25.9575C7.43277 26.1274 7.56798 26.3018 7.78475 26.3278C7.93296 26.3457 7.97296 26.3202 7.97296 26.2079C7.97296 25.9173 7.58986 25.7155 7.49757 25.9575ZM8.18049 26.8125C8.04244 26.9799 8.23378 27.2987 8.49033 27.3287C8.66263 27.349 8.68345 27.3282 8.68345 27.1362C8.68345 26.9949 8.62924 26.8828 8.5255 26.8098C8.32849 26.6709 8.29708 26.6712 8.18049 26.8125ZM9.05645 27.7467C8.92423 27.8004 8.9491 28.0893 9.09759 28.2245C9.16906 28.2895 9.31294 28.3428 9.41731 28.3428C9.57085 28.3428 9.60708 28.3097 9.60708 28.1693C9.60708 28.0669 9.53028 27.9349 9.41987 27.8476C9.22512 27.6934 9.20295 27.6872 9.05645 27.7467ZM10.2156 28.5808C10.0361 28.7129 10.1732 28.9586 10.462 29.0225C10.8429 29.1067 11.029 28.8091 10.728 28.5971C10.5347 28.4608 10.3851 28.456 10.2156 28.5808ZM12.9929 28.688C12.8285 28.8708 12.8461 28.9786 13.0532 29.0579C13.2564 29.1356 13.5532 29.0318 13.6186 28.8603C13.7246 28.5822 13.2144 28.4418 12.9929 28.688ZM11.671 28.826C11.474 28.9865 11.5389 29.1766 11.8114 29.2368C12.2349 29.3305 12.5117 28.918 12.1247 28.77C11.8802 28.6765 11.8499 28.6802 11.671 28.826Z" fill="white"/>
</svg>
