<svg width="150" height="58" viewBox="0 0 150 58" fill="none" xmlns="http://www.w3.org/2000/svg">
<path d="M77.8553 21.3653L84.951 20.9142C85.1129 22.0552 85.4097 22.9044 85.8953 23.5148C86.6778 24.4701 87.757 24.9477 89.1869 24.9477C90.2391 24.9477 91.0755 24.7089 91.6421 24.2047C92.1817 23.8067 92.5055 23.1698 92.5055 22.5064C92.5055 21.8695 92.2087 21.2591 91.6961 20.8611C91.1565 20.3834 89.8884 19.9058 87.8919 19.4812C84.6273 18.7647 82.28 17.8094 80.904 16.5887C79.528 15.4476 78.7456 13.7758 78.7996 11.9979C78.7996 10.7772 79.1773 9.5565 79.8788 8.54811C80.6882 7.40703 81.7944 6.50479 83.1164 6.00059C84.5463 5.39025 86.5429 5.07181 89.052 5.07181C92.1277 5.07181 94.475 5.62908 96.0938 6.77015C97.7126 7.88469 98.6839 9.68918 98.9807 12.1571L91.9659 12.5551C91.777 11.4937 91.3993 10.7241 90.7787 10.2199C90.1582 9.71572 89.3488 9.47689 88.2966 9.47689C87.4332 9.47689 86.7857 9.66264 86.354 10.0076C85.9493 10.3261 85.6795 10.8037 85.7065 11.3345C85.7065 11.7325 85.9223 12.104 86.2461 12.3428C86.5968 12.6613 87.4332 12.9532 88.7552 13.2186C92.0198 13.9085 94.3401 14.5985 95.77 15.3149C97.2 16.0314 98.2252 16.9071 98.8458 17.9421C99.4933 19.0035 99.8171 20.2242 99.7901 21.4714C99.7901 22.9575 99.3584 24.4435 98.495 25.6908C97.6047 26.9911 96.3636 27.9995 94.9067 28.6098C93.3688 29.2732 91.4263 29.6182 89.106 29.6182C85.005 29.6182 82.1721 28.8486 80.5803 27.283C78.9884 25.7173 78.0441 23.7536 77.8553 21.3653ZM2.55387 29.2201V5.49639H14.9917C17.285 5.49639 19.0657 5.68215 20.2798 6.0802C21.4669 6.45171 22.5191 7.22127 23.2206 8.2562C24.003 9.39728 24.3808 10.7241 24.3538 12.104C24.4347 14.4392 23.2206 16.6683 21.1431 17.8359C20.3337 18.287 19.4434 18.6055 18.5261 18.7647C19.2006 18.9505 19.8751 19.2689 20.4686 19.6404C20.9273 20.0119 21.305 20.4365 21.6558 20.8876C22.0605 21.3388 22.4112 21.843 22.708 22.3737L26.3233 29.2467H17.8516L13.8585 21.9491C13.3459 21.0203 12.9142 20.41 12.5095 20.1181C11.9699 19.7466 11.3224 19.5608 10.6749 19.5608H10.0274V29.1936H2.55387V29.2201ZM10.0274 15.1027H13.184C13.8585 15.0496 14.506 14.9434 15.1536 14.7842C15.6392 14.7046 16.0709 14.4392 16.3677 14.0412C17.0961 13.0859 16.9882 11.7325 16.0979 10.9099C15.6122 10.5118 14.6679 10.2995 13.3189 10.2995H10.0274V15.1027ZM0.854126 49.5472L7.94989 49.0961C8.11177 50.2371 8.40855 51.0863 8.89419 51.6967C9.64963 52.652 10.7558 53.1562 12.1858 53.1562C13.238 53.1562 14.0744 52.9173 14.6409 52.4131C15.1805 51.9886 15.5043 51.3782 15.5043 50.7148C15.5043 50.0779 15.2075 49.4676 14.6949 49.0695C14.1553 48.5919 12.8872 48.1142 10.8637 47.6896C7.59915 46.9731 5.25188 46.0178 3.87589 44.7971C2.49991 43.6561 1.71749 41.9842 1.77145 40.2063C1.77145 38.9856 2.14917 37.7649 2.85065 36.7565C3.66005 35.6155 4.76624 34.7132 6.08826 34.209C7.51821 33.5987 9.51473 33.2802 12.0239 33.2802C15.0996 33.2802 17.4469 33.8375 19.0657 34.9786C20.6845 36.1197 21.6288 37.8976 21.9256 40.3655L14.9107 40.7636C14.7219 39.7021 14.3442 38.9325 13.7236 38.4283C13.1301 37.9241 12.2937 37.6853 11.2415 37.7119C10.3781 37.7119 9.73057 37.8976 9.29889 38.2691C8.86721 38.5876 8.62439 39.0652 8.65137 39.596C8.65137 39.994 8.86721 40.3655 9.19097 40.6043C9.54171 40.9228 10.3781 41.2147 11.7001 41.4801C14.9647 42.17 17.285 42.86 18.7149 43.5764C20.1449 44.2929 21.1701 45.1686 21.7907 46.2036C22.4382 47.265 22.7619 48.4857 22.7619 49.7064C22.7619 51.1925 22.3033 52.652 21.4669 53.8992C20.5766 55.1995 19.3355 56.2079 17.8786 56.8182C16.3407 57.4816 14.3981 57.8266 12.0778 57.8266C7.97687 57.8266 5.14396 57.0571 3.55213 55.4914C1.96031 53.8992 1.06997 51.9355 0.854126 49.5472H0.854126Z" fill="white"/>
<path d="M36.7376 47.6895L43.2668 49.6267C42.9161 51.2454 42.1876 52.7846 41.1893 54.1379C40.272 55.3321 39.0579 56.2609 37.6819 56.8712C36.279 57.4816 34.4983 57.8 32.3399 57.8C29.7228 57.8 27.5644 57.4285 25.9186 56.6855C24.2458 55.9424 22.8159 54.6156 21.6018 52.7315C20.3877 50.8474 19.7941 48.4326 19.7941 45.487C19.7941 41.5596 20.8464 38.5344 22.9778 36.438C25.1092 34.3416 28.104 33.2802 31.9891 33.2802C35.0379 33.2802 37.4121 33.8905 39.1658 35.0846C40.8926 36.3053 42.1876 38.1629 43.051 40.6573L36.4678 42.0903C36.3059 41.533 36.0631 40.9758 35.7394 40.4981C35.3347 39.9408 34.822 39.5163 34.2015 39.1978C33.5809 38.8794 32.8795 38.7467 32.178 38.7467C30.4782 38.7467 29.1832 39.4101 28.2929 40.7635C27.6184 41.7453 27.2676 43.311 27.2676 45.4339C27.2676 48.0611 27.6723 49.8655 28.4817 50.8474C29.2911 51.8293 30.4243 52.3069 31.9082 52.3069C33.3381 52.3069 34.4173 51.9089 35.1458 51.1393C35.8743 50.3167 36.4139 49.1756 36.7376 47.6895ZM51.9814 33.6782H59.4279V41.9842H67.5758V33.6782H75.0763V57.4019H67.5758V47.7957H59.4279V57.4019H51.9814V33.6782V33.6782Z" fill="white"/>
<path d="M74.0511 45.5402C74.0511 41.6658 75.1573 38.6407 77.3427 36.4912C79.528 34.3417 82.6038 33.2537 86.5159 33.2537C90.5359 33.2537 93.6116 34.3152 95.797 36.4381C97.9824 38.561 99.0616 41.5331 99.0616 45.3544C99.0616 48.1408 98.576 50.3964 97.6317 52.1743C96.7144 53.9258 95.2844 55.3587 93.5307 56.314C91.723 57.2959 89.4837 57.8001 86.8127 57.8001C84.0877 57.8001 81.8483 57.3755 80.0676 56.5263C78.233 55.6241 76.7221 54.2177 75.7239 52.4928C74.6177 50.6352 74.0511 48.3265 74.0511 45.5402ZM81.4976 45.5667C81.4976 47.955 81.9563 49.6799 82.8466 50.7414C83.7369 51.7763 84.978 52.307 86.5429 52.307C88.1347 52.307 89.3758 51.8028 90.2661 50.7679C91.1565 49.733 91.5881 47.9019 91.5881 45.2483C91.5881 43.0192 91.1295 41.3739 90.2122 40.3655C89.2948 39.3306 88.0537 38.8264 86.4889 38.8264C85.1129 38.7733 83.7909 39.3571 82.8736 40.3921C81.9563 41.427 81.4976 43.1519 81.4976 45.5667V45.5667ZM106.697 45.5402C106.697 41.6658 107.803 38.6407 109.989 36.4912C112.174 34.3417 115.25 33.2537 119.162 33.2537C123.182 33.2537 126.285 34.3152 128.443 36.4381C130.601 38.561 131.708 41.5331 131.708 45.3544C131.708 48.1408 131.222 50.3964 130.278 52.1743C129.36 53.9258 127.93 55.3587 126.177 56.314C124.369 57.2959 122.13 57.8001 119.459 57.8001C116.734 57.8001 114.494 57.3755 112.714 56.5263C110.879 55.6241 109.368 54.2177 108.37 52.4928C107.264 50.6352 106.697 48.3265 106.697 45.5402V45.5402ZM114.143 45.5667C114.143 47.955 114.602 49.6799 115.492 50.7414C116.383 51.7763 117.624 52.307 119.189 52.307C120.781 52.307 122.022 51.8028 122.912 50.7679C123.802 49.733 124.234 47.9019 124.234 45.2483C124.234 43.0192 123.775 41.3739 122.858 40.3655C121.941 39.3306 120.7 38.8264 119.135 38.8264C117.759 38.7733 116.41 39.3571 115.519 40.3921C114.602 41.427 114.143 43.1519 114.143 45.5667V45.5667Z" fill="white"/>
<path d="M130.925 33.6783H138.372V51.564H150V57.4021H130.898V33.6783H130.925Z" fill="white"/>
<path fill-rule="evenodd" clip-rule="evenodd" d="M127.881 11.2699C132.526 17.3328 130.214 26.7524 122.717 32.3092C115.22 37.866 105.377 37.4557 100.732 31.3927C96.0866 25.3298 98.3984 15.9102 105.895 10.3534C113.392 4.79667 123.236 5.20699 127.881 11.2699ZM109.422 17.7298L106.724 19.5874L110.501 24.8151C110.798 25.16 110.987 25.6112 111.068 26.0623C111.095 26.3807 110.906 26.6992 110.636 26.8584C110.501 26.9645 110.312 27.0441 110.123 27.0441C109.881 27.0441 109.665 26.9645 109.476 26.8319C109.206 26.6196 108.963 26.3542 108.774 26.0623L106.454 28.1852C106.886 28.769 107.452 29.2202 108.1 29.5386C108.694 29.804 109.341 29.9101 109.962 29.804C110.609 29.6978 111.365 29.3528 112.255 28.7425C113.01 28.2648 113.577 27.6014 113.928 26.8053C114.197 26.1684 114.251 25.452 114.063 24.7885C113.739 23.9128 113.307 23.1167 112.741 22.3737L109.422 17.7298ZM117.273 20.6223L114.818 22.5329C115.439 23.3025 116.302 23.8332 117.354 23.9924C118.325 24.1517 119.54 23.7271 121.023 22.7187C121.752 22.241 122.372 21.6307 122.858 20.9142C123.236 20.3304 123.425 19.667 123.398 18.977C123.371 18.3136 123.155 17.6767 122.777 17.146C122.48 16.6949 122.049 16.3234 121.536 16.1111C120.969 15.8722 120.349 15.8192 119.755 15.9253C119.054 16.0315 118.029 16.3499 116.68 16.9072C116.14 17.146 115.762 17.2521 115.546 17.2256C115.358 17.2256 115.196 17.1195 115.088 16.9868C114.953 16.801 114.899 16.5622 114.98 16.3499C115.088 16.058 115.277 15.8192 115.546 15.6599L115.627 15.5803C116.248 15.1027 117.165 15.2354 117.651 15.8457L120.079 13.9616C119.324 13.139 118.514 12.7409 117.651 12.7409C116.788 12.7409 115.789 13.1124 114.656 13.882C113.901 14.3596 113.28 14.97 112.768 15.6865C112.417 16.1907 112.255 16.801 112.255 17.4114C112.282 17.9421 112.444 18.4728 112.768 18.9239C113.199 19.5874 113.928 19.9854 114.71 20.065C115.519 20.1446 116.599 19.9323 117.975 19.3751C118.811 19.0301 119.378 18.8974 119.701 18.9239C119.782 18.9239 119.863 18.9505 119.944 18.977L119.944 18.977C120.43 19.1362 120.7 19.667 120.538 20.1446C120.43 20.5161 120.16 20.808 119.836 21.0203C119.378 21.3653 118.811 21.4715 118.271 21.3122C117.894 21.1796 117.543 20.9407 117.273 20.6223Z" fill="white"/>
</svg>
