<svg width="186" height="45" viewBox="0 0 186 45" fill="none" xmlns="http://www.w3.org/2000/svg">
<path fill-rule="evenodd" clip-rule="evenodd" d="M21.3016 0.125483C16.8857 0.585068 12.5035 2.45421 9.13874 5.31326C2.87808 10.6331 -0.04377 18.6635 1.3254 26.7877C2.40378 33.1865 6.3351 38.9712 11.9221 42.3803C13.1082 43.1039 14.4932 43.7842 15.7044 44.2378C16.8656 44.6727 17.3948 44.6639 17.8045 44.2025L18.0643 43.9098V41.5279V39.146L17.8099 39.2116C16.7047 39.4968 14.9954 39.5181 13.9255 39.2601C12.8467 38.9998 12.117 38.5994 11.3988 37.8739C10.8806 37.3503 10.6947 37.0632 10.1565 35.9552C9.59029 34.7891 9.45016 34.5787 8.8226 33.9519C8.4369 33.5667 7.92644 33.1194 7.68827 32.9578C7.4501 32.7962 7.18353 32.5538 7.09594 32.4193C6.95369 32.2009 6.95165 32.1596 7.07661 32.0338C7.30914 31.7998 7.88278 31.7124 8.44208 31.8257C9.64532 32.0696 10.6661 32.8511 11.5927 34.2377C12.2428 35.2106 12.9176 35.8419 13.7171 36.2254C14.2986 36.5042 14.3591 36.5135 15.567 36.5108C16.6558 36.5083 16.8977 36.4785 17.4563 36.2782L18.097 36.0483L18.2941 35.3037C18.5179 34.4589 18.7422 33.9861 19.2146 33.3633C19.3952 33.1252 19.5222 32.9304 19.4967 32.9304C19.2025 32.9304 17.4432 32.6045 16.7275 32.4173C13.2833 31.5168 10.9617 29.4929 9.95934 26.5169C9.55607 25.3193 9.39818 24.4793 9.28442 22.9253C9.08102 20.1453 9.59806 18.1374 11.0127 16.2137L11.5526 15.4796L11.3707 14.9212C11.2228 14.4673 11.1877 14.0926 11.1832 12.9201C11.1777 11.4604 11.2811 10.786 11.658 9.82553L11.7949 9.47651H12.4128C13.5647 9.47651 15.1283 10.0531 16.9523 11.1505L18.0379 11.8037L19.0454 11.5794C20.7837 11.1923 21.6229 11.1071 23.7064 11.1062C25.7936 11.1053 26.6024 11.1876 28.3872 11.583L29.4145 11.8106L30.1908 11.3255C31.2576 10.6588 32.8615 9.9025 33.7015 9.6701C34.0891 9.56288 34.6791 9.47651 35.0243 9.47651H35.6474L35.7838 9.80505C36.328 11.1154 36.4783 13.4137 36.1113 14.8099L35.9203 15.5365L36.3699 16.1129C37.2807 17.281 37.9211 18.8163 38.142 20.3613C38.3547 21.8483 38.1425 24.3582 37.668 25.97C36.5358 29.8161 33.7099 32.0534 29.1172 32.7401C28.7611 32.7933 28.3318 32.8603 28.1632 32.889L27.8566 32.9411L28.1982 33.3216C28.3861 33.5308 28.6598 33.9684 28.8066 34.2942C29.3188 35.4308 29.3456 35.7057 29.3471 39.8439C29.3485 44.0156 29.3639 44.1439 29.8916 44.4185C30.3593 44.6619 30.8461 44.5965 32.0108 44.1338C35.0274 42.9355 37.4875 41.3096 39.8052 38.9824C43.3971 35.3759 45.4927 31.1178 46.2879 25.8105C46.4516 24.7177 46.4556 20.9716 46.2942 19.9005C45.4856 14.5337 43.3632 10.2397 39.7233 6.6062C34.8814 1.77265 28.1678 -0.589209 21.3016 0.125483ZM68.7967 7.21116C65.6973 7.46385 63.4168 8.171 61.4834 9.47893C60.5749 10.0936 59.1461 11.5265 58.5155 12.4554C57.0504 14.6138 56.1595 17.2298 55.6475 20.8777C55.5089 21.8656 55.4781 22.677 55.4795 25.2986C55.4812 28.1958 55.5022 28.6413 55.6949 29.8579C56.7944 36.7999 59.9371 40.6174 65.7705 42.0968C68.0028 42.6629 72.1665 42.7981 74.5933 42.3832C76.725 42.0188 79.0728 41.2089 80.497 40.3467L81.0057 40.0387L81.0305 31.3424L81.0553 22.6461L80.8584 22.4832C80.6757 22.332 80.2587 22.3203 75.0717 22.3203H69.4819L69.255 22.5488L69.0279 22.7772V25.5528C69.0279 27.9144 69.0494 28.3594 69.1719 28.5353C69.314 28.7395 69.3452 28.7422 71.5767 28.7422H73.8375V32.0873C73.8375 33.9271 73.8033 35.4536 73.7614 35.4797C73.3688 35.7238 70.315 35.8845 69.0673 35.7265C65.2757 35.2467 63.3294 32.5637 62.8237 27.1201C62.689 25.6706 62.7594 22.9549 62.9662 21.6223C63.5753 17.6973 65.2137 15.3907 68.022 14.5045C70.2749 13.7936 74.2837 13.9166 77.1527 14.7846C78.3524 15.1477 78.3541 15.1466 78.6837 13.7744C79.3976 10.8023 79.7456 9.1825 79.6975 9.05648C79.5837 8.75791 78.1456 8.16793 76.6515 7.80682C74.6557 7.32443 70.9007 7.03963 68.7967 7.21116ZM113.208 8.62296C113.066 8.77997 113.055 10.0659 113.055 25.2294C113.055 40.0474 113.069 41.6802 113.2 41.8121C113.327 41.9396 113.77 41.9583 116.662 41.9583C119.553 41.9583 119.997 41.9396 120.124 41.8121C120.253 41.6817 120.269 40.9035 120.269 34.6456V27.6254H125.079H129.888V34.6801C129.888 40.0431 129.915 41.7617 129.999 41.8466C130.081 41.9293 130.976 41.9583 133.453 41.9583C136.575 41.9583 136.807 41.947 136.95 41.7881C137.091 41.631 137.103 40.3456 137.103 25.1893C137.103 9.39182 137.096 8.75484 136.933 8.60676C136.783 8.46948 136.406 8.45273 133.479 8.45273C130.42 8.45273 130.184 8.46436 130.042 8.62221C129.904 8.77531 129.887 9.3773 129.866 14.8812L129.842 20.9708H125.079H120.315L120.291 14.8812C120.27 9.3773 120.253 8.77531 120.115 8.62221C119.973 8.46436 119.737 8.45273 116.662 8.45273C113.581 8.45273 113.35 8.46409 113.208 8.62296ZM164.429 8.5848C164.252 8.71463 164.249 9.00455 164.225 25.1201C164.204 39.7198 164.217 41.5472 164.343 41.7408L164.485 41.9583L166.864 41.9569C168.173 41.956 169.303 41.9175 169.376 41.8712C169.449 41.8249 169.574 41.4484 169.654 41.0347L169.799 40.2824L170.261 40.6166C172.007 41.8775 174.506 42.6098 177.064 42.6098C182.358 42.6098 184.786 40.209 185.72 34.0473C185.849 33.2013 185.883 32.3622 185.885 30.0452C185.888 26.8526 185.799 26.0462 185.24 24.2015C183.922 19.8552 180.58 17.8798 175.672 18.547C174.232 18.7428 172.999 19.1443 171.582 19.8797C171.545 19.8989 171.503 17.3951 171.489 14.3157C171.465 8.8964 171.458 8.71268 171.284 8.5848C171.019 8.38944 164.694 8.38944 164.429 8.5848ZM87.1659 9.34463C86.5131 9.52128 85.6754 10.0394 85.252 10.5284C85.0659 10.7433 84.7836 11.1913 84.6246 11.5241C84.3503 12.0981 84.3355 12.186 84.3355 13.2459C84.3355 14.3058 84.3503 14.3936 84.6246 14.9677C84.9973 15.7477 85.4574 16.2728 86.1262 16.6817C87.4632 17.4989 89.0919 17.4836 90.3959 16.6416C91.673 15.8169 92.4098 14.1397 92.1609 12.6235C91.7681 10.2302 89.4696 8.72133 87.1659 9.34463ZM97.955 12.6465C97.8058 12.7358 97.7932 12.9982 97.7932 16.0203V19.2975L96.2902 19.6606C94.1664 20.1738 94.228 20.1525 94.1082 20.417C93.9531 20.7596 93.9636 24.5208 94.1206 24.8332L94.2375 25.0659L96.0091 25.0911L97.7806 25.1164L97.817 30.8615C97.8519 36.4001 97.8604 36.6345 98.0546 37.3809C98.9455 40.8069 101.194 42.3926 105.43 42.5821C106.665 42.6374 107.722 42.5211 109.17 42.1704C110.153 41.9322 110.095 42.1139 110.095 39.2935C110.095 36.3447 110.187 36.5335 108.8 36.6559C106.881 36.8254 105.667 36.4163 105.124 35.4171C104.976 35.1435 104.959 34.6835 104.935 30.115L104.909 25.1124H107.345C109.116 25.1124 109.811 25.082 109.891 25.0007C109.973 24.9188 110.002 24.1498 110.002 22.1209C110.002 19.3657 110.001 19.3519 109.797 19.2077C109.624 19.0858 109.219 19.0628 107.253 19.0628H104.915L104.914 15.9682C104.913 14.1826 104.875 12.8146 104.825 12.734C104.75 12.6149 104.252 12.5911 101.427 12.5721C99.2627 12.5575 98.0609 12.5833 97.955 12.6465ZM84.9367 19.1318C84.5661 19.2768 84.5727 19.0737 84.5697 30.527L84.5667 41.5725L84.8104 41.7653C85.0462 41.952 85.1571 41.9583 88.2327 41.9583C91.2879 41.9583 91.4184 41.951 91.5962 41.7721C91.7791 41.588 91.7811 41.4619 91.7811 30.5106C91.7811 19.5592 91.7791 19.4331 91.5962 19.249C91.4181 19.0698 91.293 19.0631 88.2433 19.0702C86.501 19.0742 85.013 19.1019 84.9367 19.1318ZM140.236 19.3097C140.131 19.4367 140.104 20.7382 140.082 26.7322C140.053 34.4036 140.113 36.2336 140.435 37.5839C140.981 39.8721 142.399 41.4224 144.595 42.1287C145.711 42.4879 146.66 42.6098 148.341 42.6098C151.161 42.6098 152.299 42.2904 155.889 40.4905C155.921 40.4748 155.975 40.7113 156.009 41.0161C156.047 41.3587 156.144 41.6641 156.263 41.8156L156.454 42.0608L158.604 42.0328C160.257 42.0112 160.788 41.9753 160.906 41.8771C161.046 41.7597 161.058 40.8515 161.058 30.6067C161.058 19.93 161.051 19.4575 160.889 19.3099C160.739 19.1727 160.365 19.1559 157.481 19.1559C154.461 19.1559 154.232 19.1673 154.089 19.3261C153.95 19.4817 153.936 20.1873 153.936 27.5602V35.6242L153.173 35.9927C151.764 36.6733 150.255 36.9061 149.132 36.6158C148.36 36.4161 147.961 36.1013 147.659 35.4533L147.416 34.9314L147.389 27.2099C147.365 20.2534 147.347 19.472 147.213 19.3221C147.074 19.1684 146.812 19.1559 143.713 19.1559C140.71 19.1559 140.349 19.1718 140.236 19.3097ZM176.716 24.6796C178.179 25.3997 178.817 27.1421 178.817 30.4143C178.817 33.4874 178.423 35.2179 177.542 36.0192C176.985 36.5251 176.37 36.6997 175.163 36.6946C173.806 36.6888 172.975 36.4892 171.626 35.8449L171.325 35.7013V30.5412V25.381L171.996 25.0755C172.566 24.8154 173.107 24.6435 174.054 24.4217C174.155 24.3978 174.681 24.3894 175.221 24.4028C176.072 24.4241 176.272 24.461 176.716 24.6796ZM9 32.586C9 32.7569 9.19303 32.9304 9.38301 32.9304C9.60268 32.9304 9.68722 32.765 9.55163 32.6006C9.41289 32.4324 9 32.4215 9 32.586ZM9.95351 33.3619C9.86916 33.5831 10.0452 33.8101 10.3274 33.844C10.5203 33.8673 10.5724 33.834 10.5724 33.6878C10.5724 33.3095 10.0737 33.0468 9.95351 33.3619ZM10.8426 34.4749C10.6628 34.6929 10.9119 35.1079 11.2459 35.147C11.4702 35.1733 11.4973 35.1463 11.4973 34.8963C11.4973 34.7124 11.4267 34.5665 11.2917 34.4714C11.0352 34.2905 10.9943 34.2909 10.8426 34.4749ZM11.9829 35.6911C11.8108 35.761 11.8431 36.1371 12.0365 36.3131C12.1295 36.3978 12.3168 36.4671 12.4527 36.4671C12.6525 36.4671 12.6997 36.424 12.6997 36.2412C12.6997 36.1079 12.5997 35.9361 12.456 35.8224C12.2025 35.6216 12.1736 35.6136 11.9829 35.6911ZM13.4919 36.7769C13.2582 36.9489 13.4367 37.2688 13.8127 37.3519C14.3085 37.4616 14.5508 37.0742 14.159 36.7982C13.9073 36.6207 13.7126 36.6145 13.4919 36.7769ZM17.1075 36.9165C16.8934 37.1544 16.9164 37.2948 17.186 37.398C17.4505 37.4992 17.8369 37.3641 17.9221 37.1407C18.0601 36.7788 17.3958 36.596 17.1075 36.9165ZM15.3866 37.0962C15.1301 37.3051 15.2146 37.5526 15.5693 37.6309C16.1207 37.7529 16.481 37.2159 15.9772 37.0232C15.6589 36.9015 15.6195 36.9063 15.3866 37.0962Z" fill="white"/>
</svg>
