<svg width="218" height="85" viewBox="0 0 218 85" fill="none" xmlns="http://www.w3.org/2000/svg">
<path d="M112.477 31.4279L122.785 30.7726C123.02 32.4301 123.451 33.6636 124.156 34.5502C125.293 35.9379 126.86 36.6317 128.938 36.6317C130.466 36.6317 131.681 36.2848 132.504 35.5524C133.288 34.9742 133.758 34.0491 133.758 33.0854C133.758 32.1603 133.327 31.2737 132.582 30.6955C131.798 30.0017 129.957 29.3079 127.056 28.6911C122.314 27.6504 118.905 26.2627 116.906 24.4896C114.907 22.8321 113.771 20.4036 113.849 17.821C113.849 16.0479 114.398 14.2747 115.417 12.81C116.592 11.1525 118.199 9.84189 120.12 9.1095C122.197 8.22293 125.097 7.76038 128.742 7.76038C133.209 7.76038 136.619 8.56985 138.97 10.2274C141.322 11.8463 142.733 14.4675 143.164 18.0523L132.974 18.6305C132.7 17.0886 132.151 15.9708 131.25 15.2384C130.348 14.506 129.173 14.1591 127.644 14.1591C126.39 14.1591 125.45 14.4289 124.823 14.93C124.235 15.3926 123.843 16.0864 123.882 16.8574C123.882 17.4355 124.195 17.9752 124.666 18.3221C125.175 18.7847 126.39 19.2087 128.311 19.5942C133.053 20.5964 136.423 21.5986 138.5 22.6393C140.577 23.6801 142.066 24.9521 142.968 26.4554C143.908 27.9973 144.379 29.7704 144.339 31.5821C144.339 33.7407 143.712 35.8993 142.458 37.711C141.165 39.5998 139.362 41.0646 137.246 41.9511C135.012 42.9148 132.19 43.4159 128.82 43.4159C122.863 43.4159 118.748 42.298 116.436 40.0238C114.123 37.7496 112.752 34.8971 112.477 31.4279ZM3.09633 42.8377V8.37712H21.1632C24.4944 8.37712 27.081 8.64695 28.8446 9.22514C30.569 9.76479 32.0974 10.8826 33.1164 12.386C34.2529 14.0435 34.8016 15.9708 34.7624 17.9752C34.88 21.3673 33.1164 24.6052 30.0987 26.3012C28.923 26.9565 27.6297 27.4191 26.2972 27.6504C27.277 27.9202 28.2567 28.3828 29.1189 28.9224C29.7852 29.4621 30.3338 30.0788 30.8433 30.7341C31.4312 31.3894 31.9407 32.1218 32.3718 32.8927L37.6233 42.8762H25.3174L19.5172 32.276C18.7726 30.9268 18.1455 30.0403 17.5577 29.6162C16.7739 29.0766 15.8333 28.8068 14.8927 28.8068H13.9521V42.7992H3.09633V42.8377ZM13.9521 22.331H18.5375C19.5172 22.2539 20.4578 22.0997 21.3984 21.8684C22.1038 21.7528 22.7309 21.3673 23.162 20.7891C24.2201 19.4014 24.0633 17.4355 22.77 16.2406C22.0646 15.6624 20.6929 15.354 18.7334 15.354H13.9521V22.331ZM0.627319 72.3643L10.9345 71.709C11.1696 73.3665 11.6007 74.6 12.3061 75.4866C13.4035 76.8743 15.0103 77.6066 17.0874 77.6066C18.6158 77.6066 19.8307 77.2597 20.6537 76.5273C21.4376 75.9106 21.9079 75.024 21.9079 74.0604C21.9079 73.1353 21.4768 72.2487 20.7321 71.6705C19.9483 70.9766 18.1064 70.2828 15.1671 69.6661C10.425 68.6253 7.0154 67.2376 5.01667 65.4645C3.01795 63.807 1.88142 61.3786 1.9598 58.796C1.9598 57.0228 2.50847 55.2497 3.52743 53.7849C4.70315 52.1274 6.30997 50.8168 8.23031 50.0844C10.3074 49.1979 13.2075 48.7353 16.8523 48.7353C21.32 48.7353 24.7296 49.5448 27.081 51.2023C29.4325 52.8598 30.8041 55.4424 31.2352 59.0272L21.0457 59.6054C20.7713 58.0636 20.2227 56.9457 19.3213 56.2133C18.4591 55.481 17.2442 55.134 15.7157 55.1726C14.4616 55.1726 13.521 55.4424 12.894 55.9821C12.2669 56.4446 11.9142 57.1384 11.9534 57.9094C11.9534 58.4876 12.2669 59.0272 12.7372 59.3741C13.2467 59.8367 14.4616 60.2607 16.382 60.6462C21.124 61.6484 24.4944 62.6506 26.5715 63.6914C28.6486 64.7321 30.1379 66.0042 31.0393 67.5075C31.9799 69.0493 32.4501 70.8225 32.4501 72.5956C32.4501 74.7542 31.7839 76.8743 30.569 78.686C29.2757 80.5747 27.4729 82.0395 25.3566 82.9261C23.1228 83.8897 20.301 84.3908 16.9306 84.3908C10.9737 84.3908 6.85864 83.273 4.54639 80.9987C2.23414 78.686 0.940845 75.8335 0.627319 72.3643H0.627319Z" fill="white"/>
<path d="M52.7509 69.666L62.235 72.4799C61.7256 74.8312 60.6674 77.0669 59.2174 79.0328C57.8849 80.7674 56.1213 82.1165 54.1226 83.0031C52.0847 83.8896 49.4981 84.3522 46.3628 84.3522C42.5613 84.3522 39.4261 83.8126 37.0354 82.7333C34.6056 81.654 32.5285 79.7266 30.7649 76.9898C29.0014 74.253 28.1392 70.7453 28.1392 66.4666C28.1392 60.7617 29.6676 56.3674 32.7637 53.3223C35.8597 50.2771 40.2099 48.7352 45.8533 48.7352C50.2819 48.7352 53.7307 49.6218 56.2781 51.3564C58.7863 53.1295 60.6674 55.8278 61.9215 59.4512L52.359 61.5327C52.1238 60.7232 51.7711 59.9137 51.3008 59.2199C50.713 58.4104 49.9684 57.7937 49.067 57.3311C48.1656 56.8685 47.1466 56.6758 46.1277 56.6758C43.6587 56.6758 41.7775 57.6395 40.4842 59.6053C39.5045 61.0316 38.995 63.3058 38.995 66.3895C38.995 70.2056 39.5828 72.8268 40.7586 74.253C41.9343 75.6792 43.5803 76.3731 45.7358 76.3731C47.8129 76.3731 49.3805 75.7949 50.4386 74.677C51.4968 73.4821 52.2806 71.8246 52.7509 69.666ZM74.8936 49.3134H85.7103V61.3785H97.5458V49.3134H108.441V83.774H97.5458V69.8202H85.7103V83.774H74.8936V49.3134V49.3134Z" fill="white"/>
<path d="M106.952 66.5439C106.952 60.9161 108.558 56.5218 111.733 53.3995C114.907 50.2772 119.375 48.6968 125.058 48.6968C130.897 48.6968 135.365 50.2387 138.539 53.3224C141.714 56.4061 143.281 60.7233 143.281 66.274C143.281 70.3214 142.576 73.5979 141.204 76.1805C139.872 78.7246 137.795 80.8061 135.247 82.1938C132.621 83.62 129.369 84.3524 125.489 84.3524C121.531 84.3524 118.278 83.7356 115.691 82.5021C113.026 81.1915 110.831 79.1486 109.381 76.6431C107.775 73.9448 106.952 70.5913 106.952 66.5439ZM117.768 66.5824C117.768 70.0516 118.434 72.5571 119.728 74.099C121.021 75.6023 122.824 76.3732 125.097 76.3732C127.409 76.3732 129.212 75.6408 130.505 74.1375C131.798 72.6342 132.426 69.9745 132.426 66.1199C132.426 62.882 131.759 60.4921 130.427 59.0273C129.094 57.524 127.292 56.7916 125.018 56.7916C123.02 56.7145 121.099 57.5625 119.767 59.0658C118.434 60.5692 117.768 63.0747 117.768 66.5824V66.5824ZM154.372 66.5439C154.372 60.9161 155.979 56.5218 159.154 53.3995C162.328 50.2772 166.796 48.6968 172.478 48.6968C178.318 48.6968 182.825 50.2387 185.96 53.3224C189.095 56.4061 190.702 60.7233 190.702 66.274C190.702 70.3214 189.997 73.5979 188.625 76.1805C187.292 78.7246 185.215 80.8061 182.668 82.1938C180.042 83.62 176.789 84.3524 172.909 84.3524C168.951 84.3524 165.698 83.7356 163.112 82.5021C160.447 81.1915 158.252 79.1486 156.802 76.6431C155.195 73.9448 154.372 70.5913 154.372 66.5439V66.5439ZM165.189 66.5824C165.189 70.0516 165.855 72.5571 167.148 74.099C168.442 75.6023 170.245 76.3732 172.518 76.3732C174.83 76.3732 176.633 75.6408 177.926 74.1375C179.219 72.6342 179.846 69.9745 179.846 66.1199C179.846 62.882 179.18 60.4921 177.848 59.0273C176.515 57.524 174.712 56.7916 172.439 56.7916C170.44 56.7145 168.481 57.5625 167.188 59.0658C165.855 60.5692 165.189 63.0747 165.189 66.5824V66.5824Z" fill="white"/>
<path d="M189.565 49.3136H200.382V75.2939H217.273V83.7742H189.526V49.3136H189.565Z" fill="white"/>
<path d="M177.643 47.3248C188.533 39.2532 191.891 25.5704 185.144 16.7636C178.396 7.95674 164.098 7.36073 153.208 15.4324C142.318 23.504 138.96 37.1867 145.707 45.9936C152.455 54.8004 166.753 55.3964 177.643 47.3248Z" fill="white"/>
<path d="M177.643 47.3247C188.533 39.2531 191.891 25.5704 185.144 16.7635C178.396 7.95668 164.098 7.36067 153.208 15.4323C142.318 23.5039 138.96 37.1867 145.707 45.9935C152.455 54.8004 166.753 55.3964 177.643 47.3247Z" fill="white"/>
<path d="M177.643 47.3247C188.533 39.2531 191.891 25.5704 185.144 16.7635C178.396 7.95668 164.098 7.36067 153.208 15.4323C142.318 23.5039 138.96 37.1867 145.707 45.9935C152.455 54.8004 166.753 55.3964 177.643 47.3247Z" stroke="black" stroke-width="1.57742" stroke-miterlimit="10"/>
<path d="M154.412 28.8453L158.331 26.1471L163.151 32.8927C163.974 33.972 164.601 35.1284 165.071 36.4004C165.346 37.3641 165.267 38.4049 164.875 39.33C164.366 40.4864 163.543 41.45 162.446 42.1439C161.152 43.0304 160.055 43.5315 159.114 43.6857C158.213 43.8399 157.272 43.6857 156.41 43.3003C155.47 42.8377 154.647 42.1824 154.02 41.3344L157.39 38.2507C157.664 38.6747 158.017 39.0602 158.409 39.3685C158.683 39.5613 158.997 39.6769 159.35 39.6769C159.624 39.6769 159.898 39.5613 160.094 39.4071C160.486 39.1758 160.76 38.7132 160.721 38.2507C160.604 37.5954 160.329 36.9401 159.898 36.439L154.412 28.8453V28.8453ZM166.169 33.124L169.735 30.3486C170.127 30.8112 170.636 31.1581 171.185 31.3509C171.969 31.5821 172.792 31.4279 173.458 30.9268C173.928 30.6185 174.32 30.1945 174.477 29.6548C174.712 28.961 174.32 28.19 173.615 27.9588C173.497 27.9202 173.38 27.8817 173.262 27.8817C172.792 27.8431 171.969 28.0359 170.754 28.537C168.755 29.3464 167.188 29.6548 166.012 29.5392C164.875 29.4235 163.817 28.8453 163.19 27.8817C162.72 27.2264 162.485 26.4554 162.446 25.6845C162.446 24.7979 162.681 23.9114 163.19 23.179C163.935 22.1382 164.836 21.2517 165.934 20.5578C167.58 19.44 169.03 18.9003 170.284 18.9003C171.538 18.9003 172.714 19.4785 173.811 20.6735L170.284 23.4103C169.578 22.5237 168.246 22.331 167.344 23.0248L167.227 23.1404C166.835 23.3717 166.561 23.7186 166.404 24.1427C166.286 24.451 166.365 24.7979 166.561 25.0678C166.717 25.2605 166.953 25.4147 167.227 25.4147C167.54 25.4532 168.089 25.2991 168.873 24.9521C170.832 24.1427 172.322 23.6801 173.341 23.5259C174.203 23.3717 175.104 23.4488 175.927 23.7957C176.672 24.1041 177.299 24.6438 177.73 25.299C178.279 26.07 178.592 26.9951 178.631 27.9588C178.671 28.961 178.396 29.9246 177.848 30.7727C177.142 31.8134 176.241 32.7 175.183 33.3938C173.027 34.8586 171.264 35.4753 169.853 35.244C168.324 35.0128 167.07 34.2418 166.169 33.124V33.124Z" fill="black"/>
</svg>
