<svg width="733" height="205" viewBox="0 0 733 205" fill="none" xmlns="http://www.w3.org/2000/svg">
<path fill-rule="evenodd" clip-rule="evenodd" d="M0 200.474H53.4483L74.3297 103.382H74.8744L112.098 200.474H164.158L204.883 6.61451H153.069L133.005 102.63H132.46L94.4199 6.61451H40.1803L0 200.474ZM264.933 200.474H315.399L330.353 129.698L331.896 128.543L353.4 200.474H403.528L382.232 122.72L435.914 59.5571H376.473L336.526 107.636H334.983L357.226 6.61451H305.114L264.933 200.474V200.474ZM574.95 200.474H625.415L641.173 125.807C644.416 111.138 647.477 101.177 664.584 101.177C673.273 101.177 676.36 104.666 675.66 112.603C675.18 118.284 672.145 130.1 670.498 138.245L656.037 200.487H709.796L726.916 120.93C729.069 110.619 730.95 100.619 731.702 94.4069C734.595 70.9576 720.613 55.744 695.101 56.1201C672.612 56.4703 662.95 69.6606 652.626 82.4228H652.094L656.166 59.5701H604.313L574.95 200.474V200.474ZM223.482 22.8397C223.482 10.2201 236.737 0 253.092 0C269.447 0 282.715 10.2331 282.715 22.8397C282.715 35.4463 269.46 45.6795 253.092 45.6795C236.75 45.6665 223.482 35.4463 223.482 22.8397ZM190.539 200.474H241.004L270.329 59.5571H219.863L190.539 200.474V200.474Z" fill="black"/>
<path fill-rule="evenodd" clip-rule="evenodd" d="M473.02 140.657C477.534 116.066 482.008 92.5131 501.437 91.8257C514.588 91.3458 514.588 103.602 511.112 125.405C509.193 137.466 502.124 166.285 486.185 165.935C470.997 165.611 470.971 151.876 473.02 140.657ZM416.018 138.024C410.856 189.099 451.205 205.428 486.34 203.988C549.218 201.42 565.573 153.302 571.331 117.662C577.284 80.7496 544.782 54.0708 503.512 54.0708C445.965 54.0708 421.063 88.3499 416.018 138.024V138.024Z" fill="black"/>
</svg>
