<?xml version="1.0" encoding="utf-8"?>
<!-- Generator: Adobe Illustrator 19.2.1, SVG Export Plug-In . SVG Version: 6.00 Build 0)  -->
<svg version="1.1" id="layer" xmlns="http://www.w3.org/2000/svg" xmlns:xlink="http://www.w3.org/1999/xlink" x="0px" y="0px"
	 viewBox="0 0 652 652" style="enable-background:new 0 0 652 652;" xml:space="preserve">
<style type="text/css">
	.st0{fill:#E6002D;}
</style>
<g>
	<path d="M458.7,272.9c0.5,0,14.1,0,18.4,0v77.4l0-0.2l0,0.9c0,5.1,2.5,7.7,7.6,7.9h25.7v8.8c0,1-0.5,1.7-1.6,1.7h-41.6
		c-12.9,0-14.8-7.1-14.8-13.5v-77.6c0-3.7,1.4-5.4,5.7-5.3H458.7"/>
	<path d="M410.3,272.9H429v90.8c0,0,0,0.6,0,0.6c0,4.1-1.7,5.1-5.2,5.1h-19.5v-91.4c0.1-3.1,1.2-5.1,5.5-5h-0.3L410.3,272.9"/>
	<path d="M20.3,286.8v-0.5c0-3.9-0.2-8.1,2.2-10.7c2.2-2.3,5.8-2.8,10.3-2.8h52.7v9.3c0,0.6-0.3,1.3-1.2,1.3c0,0-31.9,0-31.9,0
		c-4.6,0.2-6.2,1.8-6.4,6.4v24.5h37.5v9.5c0,0,0,0.3,0,0.3c0,0.8-0.6,1.2-1.4,1.2c0,0-36.1,0-36.1,0v37.7l0-0.2l0,0.6v0.7
		c-0.1,3.8-1.9,5.3-6.1,5.2H20.3V286.8"/>
	<path d="M104.8,272.9c0.4,0,14.4,0,18.6,0v73.5c0,6.3,0.9,10.7,5.3,13.3c5.9,3.4,16.9,3.5,22.9,0.1c4.1-2.3,5.7-5.8,5.7-12.9v-69.2
		c0.1-3.2,1.2-4.9,5.5-4.8c0,0,14.5,0,18.7,0v65.3c0,4.4,0,14.6-3.4,20.2c-3.5,5.8-8.8,9.7-16.2,11.8c-12.3,3.4-30.9,3.4-42.5-0.1
		c-13.9-4.2-20.3-12.4-20.3-25.8l0-65.1l0,0.3l0-1.2V278c0-1.8,0.5-3.5,1.1-4.1c0.7-0.7,2-1.1,4.1-1.1H104.8"/>
	<path d="M591.4,272.9c-4.9,0-7.5,2.2-8.8,6.6L566.9,346l-0.4,0c0,0-14.4-65.1-16.3-73.2c-4.3,0-22.2,0-22.2,0
		c-4.3,0-5.6,2.2-5.6,5.6v0.4v90.5h9.4c1.5,0,2.1-0.8,2.1-2.3v-76.2h1.5l1,3.6c0.2,0.7,17,66.6,19.1,74.9h13.2c5,0,6.8-2,8-6.9
		l18-71.5h1.5c0,15.9,0,76.5,0,78.5c4.2,0,17.6,0,17.6,0c4.3,0,6.3-1.7,6.3-5.9v-90.6C614.4,272.9,591.4,272.9,591.4,272.9"/>
	<path d="M337,272.8c-4.5,0-8.1,0.5-10.3,2.8c-2.4,2.6-2.3,6.8-2.3,10.7v0.5v24.2c0,0.4-0.2,0.7-0.5,0.9l-16.9,13.3h17.4v44h19.6
		c4.1,0.1,6-1.4,6.1-5.2v-0.7l0-0.6l0,0.2v-37.7h6.5c0,0,0,0,0.1,0h29.5c0.8,0,1.4-0.4,1.4-1.2v-0.3v-9.5h-37.4v-24.5
		c0.2-4.5,1.8-6.1,6.4-6.4c0,0,31.9,0,31.9,0c0.9,0,1.2-0.6,1.2-1.3v-9.3H337"/>
	<path d="M299.1,325.3h-24.7v44.1h19.5c3.5,0,5.2-1,5.2-5.1c0,0,0-0.6,0-0.6V325.3"/>
	<path d="M297.7,306.5c0.9-0.7,1.4-1.2,1.4-2.7v-30.9h-18.7l-0.8,0l0.3,0c-4.3-0.1-5.4,1.9-5.5,5v46.8L297.7,306.5"/>
	<path d="M212.9,361.7c10.7-1.5,14.3-7.9,14.3-17.3v-66.3c0-4,2.3-5.3,4.9-5.2c0,0,17.7,0,19.8,0v62.7c0,15.4-3.2,23.2-12.4,29.8
		c-4.8,3.4-13.1,7.3-31.1,7.3c-10.3,0-14.9-0.6-15.5-0.7c-0.9-0.2-1.2-0.7-1.2-1.4v-8.2C196,362.5,205.7,362.8,212.9,361.7"/>
	<path d="M459,272.1c0.5,0,14.1,0,18.4,0v77.4l0-0.2l0,0.8c0,5.1,2.5,7.7,7.6,7.9c0.1,0,20.6,0,25.7,0v8.8c0,1-0.5,1.7-1.6,1.7
		h-41.7c-12.9,0-14.8-7.1-14.8-13.5l0-77.6c0-3.7,1.4-5.4,5.7-5.3H459"/>
	<path d="M410.6,272.1c0,0,16.6,0,18.7,0v90.8c0,0,0,0.6,0,0.6c0,4.1-1.7,5.1-5.2,5.1h-19.5v-91.4c0.1-3.1,1.2-5.1,5.5-5l-0.3,0
		L410.6,272.1"/>
	<path d="M20.6,286.1v-0.5c0-3.9-0.2-8.1,2.3-10.7c2.2-2.3,5.8-2.8,10.3-2.8c0,0,50.4,0,52.7,0v9.3c0,0.6-0.3,1.3-1.2,1.3
		c0,0-31.9,0-31.9,0c-4.6,0.2-6.2,1.9-6.4,6.4v24.5h37.5v9.5c0,0,0,0.3,0,0.3c0,0.8-0.6,1.2-1.4,1.2c0,0-36.1,0-36.1,0v37.8l0-0.2
		l0,0.6v0.7c-0.1,3.8-1.9,5.3-6.1,5.2H20.6V286.1"/>
	<path d="M105.1,272.1c0.4,0,14.4,0,18.6,0v73.6c0,6.3,0.9,10.7,5.3,13.3c5.9,3.4,16.9,3.5,22.9,0.1c4.1-2.3,5.7-5.8,5.7-12.9v-69.2
		c0.1-3.2,1.2-4.9,5.5-4.8c0,0,14.5,0,18.7,0v65.3c0,4.3,0,14.6-3.4,20.2c-3.5,5.8-8.8,9.7-16.2,11.8c-12.3,3.4-30.9,3.4-42.5-0.1
		c-13.9-4.2-20.3-12.4-20.3-25.8l0-65.1l0,0.3l0-1.2v-0.2c0-1.8,0.5-3.5,1.1-4.1c0.7-0.7,2-1.1,4.1-1.1H105.1"/>
	<path d="M591.7,272.1c-4.9,0-7.5,2.2-8.8,6.6l-15.7,66.5l-0.4,0c0,0-14.4-65.1-16.3-73.2c-4.3,0-22.2,0-22.2,0
		c-4.3,0-5.6,2.2-5.6,5.6v0.4v90.5h9.4c1.5,0,2.1-0.7,2.1-2.3v-76.2h1.5l1,3.6c0.2,0.7,17,66.6,19.1,74.9h13.2c5,0,6.8-2,8-6.9
		l18-71.5h1.5c0,15.9,0,76.5,0,78.5c4.2,0,17.6,0,17.6,0c4.3,0,6.3-1.7,6.3-5.9c0,0,0-88.3,0-90.6
		C614.7,272.1,591.7,272.1,591.7,272.1"/>
	<path d="M337.3,272.1c-4.5,0-8.1,0.5-10.3,2.8c-2.4,2.6-2.3,6.8-2.3,10.7v0.5c0,0,0,9,0,24.3c0,0.4-0.2,0.7-0.4,0.9l-16.9,13.3
		h17.4v44.1h19.6c4.1,0.1,6-1.4,6.1-5.2v-0.7l0-0.6l0,0.2v-37.7h6.5c0,0,0.1,0,0.1,0h29.5c0.8,0,1.4-0.4,1.4-1.2V323v-9.5h-37.5V289
		c0.2-4.5,1.8-6.1,6.4-6.4c0,0,31.9,0,31.9,0c0.9,0,1.2-0.6,1.2-1.3v-9.3H337.3"/>
	<path d="M299.4,324.5h-24.7v44.1h19.5c3.5,0,5.2-1,5.2-5.1c0,0,0-0.6,0-0.6V324.5"/>
	<path class="st0" d="M298,305.7c0.9-0.7,1.4-1.2,1.4-2.7v-30.9h-18.7l-0.8,0h0.3c-4.3-0.1-5.4,1.9-5.5,5v46.8L298,305.7"/>
	<path d="M213.3,361c10.7-1.5,14.3-7.9,14.3-17.3v-66.3c0-4,2.3-5.3,4.9-5.2c0,0,17.7,0,19.8,0v62.7c0,15.4-3.2,23.2-12.4,29.8
		c-4.8,3.4-13.1,7.3-31.1,7.3c-10.3,0-14.9-0.6-15.5-0.7c-0.9-0.2-1.2-0.7-1.2-1.4v-8.2C196.3,361.7,206,362,213.3,361"/>
</g>
</svg>
