<svg width="601" height="101" viewBox="0 0 601 101" fill="none" xmlns="http://www.w3.org/2000/svg">
<path d="M438.404 0.899902C438.904 0.899902 452.504 0.899902 456.804 0.899902V78.2999V78.0999V78.9999C456.804 84.0999 459.304 86.6999 464.404 86.8999H490.104V95.6999C490.104 96.6999 489.604 97.3999 488.504 97.3999H446.904C434.004 97.3999 432.104 90.2999 432.104 83.8999V6.2999C432.104 2.5999 433.504 0.899908 437.804 0.999908H438.404" fill="black"/>
<path d="M390.004 0.899902H408.704V91.6999V92.2999C408.704 96.3999 407.004 97.3999 403.504 97.3999H384.004V5.99991C384.104 2.89991 385.204 0.899908 389.504 0.999908H389.204L390.004 0.899902Z" fill="black"/>
<path d="M0.0040816 14.7998V14.2998C0.0040816 10.3998 -0.195918 6.19982 2.20408 3.59982C4.40408 1.29982 8.00408 0.799805 12.5041 0.799805H65.2041V10.0998C65.2041 10.6998 64.9041 11.3998 64.0041 11.3998H32.1041C27.5041 11.5998 25.9041 13.1998 25.7041 17.7998V42.2998H63.2041V51.7998V52.0998C63.2041 52.8998 62.6041 53.2998 61.8041 53.2998H25.7041V90.9998V90.7998V91.3998V92.0998C25.6041 95.8998 23.8041 97.3998 19.6041 97.2998H0.0040816V14.7998Z" fill="black"/>
<path d="M84.5041 0.899811C84.9041 0.899811 98.9041 0.899811 103.104 0.899811V74.3998C103.104 80.6998 104.004 85.0998 108.404 87.6998C114.304 91.0998 125.304 91.1998 131.304 87.7998C135.404 85.4998 137.004 81.9998 137.004 74.8998V5.69983C137.104 2.49983 138.204 0.799811 142.504 0.899811C142.504 0.899811 157.004 0.899811 161.204 0.899811V66.1998C161.204 70.5998 161.204 80.7998 157.804 86.3998C154.304 92.1998 149.004 96.0998 141.604 98.1998C129.304 101.6 110.704 101.6 99.1041 98.0998C85.2041 93.8998 78.8041 85.6998 78.8041 72.2998V7.19983V7.49982V6.2998V5.99982C78.8041 4.19982 79.3041 2.49981 79.9041 1.89981C80.6041 1.19981 81.9041 0.799805 84.0041 0.799805H84.5041" fill="black"/>
<path d="M571.104 0.899811C566.204 0.899811 563.604 3.09982 562.304 7.49982L546.604 73.9998H546.204C546.204 73.9998 531.804 8.89981 529.904 0.799805C525.604 0.799805 507.704 0.799805 507.704 0.799805C503.404 0.799805 502.104 2.99981 502.104 6.39981V6.7998V97.2998H511.504C513.004 97.2998 513.604 96.4998 513.604 94.9998V18.7998H515.104L516.104 22.3998C516.304 23.0998 533.104 88.9998 535.204 97.2998H548.404C553.404 97.2998 555.204 95.2998 556.404 90.3998L574.404 18.8998H575.904C575.904 34.7998 575.904 95.3998 575.904 97.3998C580.104 97.3998 593.504 97.3998 593.504 97.3998C597.804 97.3998 599.804 95.6998 599.804 91.4998V0.899811C594.104 0.899811 571.104 0.899811 571.104 0.899811Z" fill="black"/>
<path d="M316.704 0.800171C312.204 0.800171 308.604 1.30019 306.404 3.60019C304.004 6.20019 304.104 10.4002 304.104 14.3002V14.8002V39.0002C304.104 39.4002 303.904 39.7002 303.604 39.9002L286.704 53.2002H304.104V97.2002H323.704C327.804 97.3002 329.704 95.8002 329.804 92.0002V91.3002V90.7002V90.9002V53.2002H336.304C336.304 53.2002 336.304 53.2002 336.404 53.2002H365.904C366.704 53.2002 367.304 52.8002 367.304 52.0002V51.7002V42.2002H329.904V17.7002C330.104 13.2002 331.704 11.6002 336.304 11.3002H368.204C369.104 11.3002 369.404 10.7002 369.404 10.0002V0.700195H316.704" fill="black"/>
<path d="M278.804 53.2998H254.104V97.3998H273.604C277.104 97.3998 278.804 96.3998 278.804 92.2998V91.6998V53.2998Z" fill="black"/>
<path d="M277.404 34.5001C278.304 33.8001 278.804 33.3001 278.804 31.8001V0.900069H260.104H259.304H259.604C255.304 0.800069 254.204 2.80007 254.104 5.90007V52.7001L277.404 34.5001Z" fill="black"/>
<path d="M192.604 89.6999C203.304 88.1999 206.904 81.7998 206.904 72.3998V6.09984C206.904 2.09984 209.204 0.799831 211.804 0.899831C211.804 0.899831 229.504 0.899831 231.604 0.899831V63.5998C231.604 78.9998 228.404 86.7998 219.204 93.3998C214.404 96.7998 206.104 100.7 188.104 100.7C177.804 100.7 173.204 100.1 172.604 99.9998C171.704 99.7998 171.404 99.2998 171.404 98.5998V90.3998C175.704 90.4998 185.404 90.7999 192.604 89.6999Z" fill="black"/>
<path d="M438.704 0.0998655C439.204 0.0998655 452.804 0.0998655 457.104 0.0998655V77.4999V77.2999V78.0999C457.104 83.1999 459.604 85.7999 464.704 85.9999C464.804 85.9999 485.304 85.9999 490.404 85.9999V94.7999C490.404 95.7999 489.904 96.4999 488.804 96.4999H447.104C434.204 96.4999 432.304 89.3999 432.304 82.9999V5.39985C432.304 1.69985 433.704 -0.000134459 438.004 0.0998655H438.704" fill="black"/>
<path d="M390.304 0.100098C390.304 0.100098 406.904 0.100098 409.004 0.100098V90.9001V91.5001C409.004 95.6001 407.304 96.6001 403.804 96.6001H384.304V5.2001C384.404 2.1001 385.504 0.100104 389.804 0.200104H389.504L390.304 0.100098Z" fill="black"/>
<path d="M0.304098 14.1001V13.6001C0.304098 9.7001 0.104097 5.50009 2.6041 2.90009C4.8041 0.600085 8.4041 0.100098 12.9041 0.100098C12.9041 0.100098 63.3041 0.100098 65.6041 0.100098V9.40009C65.6041 10.0001 65.3041 10.7001 64.4041 10.7001H32.5041C27.9041 10.9001 26.3041 12.6001 26.1041 17.1001V41.6001H63.6041V51.1001V51.4001C63.6041 52.2001 63.0041 52.6001 62.2041 52.6001H26.1041V90.4001V90.2001V90.8001V91.5001C26.0041 95.3001 24.2041 96.8001 20.0041 96.7001H0.304098V14.1001Z" fill="black"/>
<path d="M84.8041 0.100098C85.2041 0.100098 99.2041 0.100098 103.404 0.100098V73.7001C103.404 80.0001 104.304 84.4001 108.704 87.0001C114.604 90.4001 125.604 90.5001 131.604 87.1001C135.704 84.8001 137.304 81.3001 137.304 74.2001V5.00009C137.404 1.80009 138.504 0.100104 142.804 0.200104C142.804 0.200104 157.304 0.200104 161.504 0.200104V65.5001C161.504 69.8001 161.504 80.1001 158.104 85.7001C154.604 91.5001 149.304 95.4001 141.904 97.5001C129.604 100.9 111.004 100.9 99.4041 97.4001C85.5041 93.2001 79.1041 85.0001 79.1041 71.6001V6.50009V6.80008V5.6001V5.40009C79.1041 3.60009 79.6041 1.90008 80.2041 1.30008C80.9041 0.600079 82.2041 0.200104 84.3041 0.200104H84.8041" fill="black"/>
<path d="M571.404 0.100006C566.504 0.100006 563.904 2.30001 562.604 6.70001L546.904 73.2H546.504C546.504 73.2 532.104 8.1 530.204 0C525.904 0 508.004 0 508.004 0C503.704 0 502.404 2.20001 502.404 5.60001V6V96.5H511.804C513.304 96.5 513.904 95.8 513.904 94.2V18H515.404L516.404 21.6C516.604 22.3 533.404 88.2 535.504 96.5H548.704C553.704 96.5 555.504 94.5 556.704 89.6L574.704 18.1H576.204C576.204 34 576.204 94.6 576.204 96.6C580.404 96.6 593.804 96.6 593.804 96.6C598.104 96.6 600.104 94.9 600.104 90.7C600.104 90.7 600.104 2.40001 600.104 0.100006C594.404 0.100006 571.404 0.100006 571.404 0.100006Z" fill="black"/>
<path d="M317.004 0.100006C312.504 0.100006 308.904 0.599994 306.704 2.89999C304.304 5.49999 304.404 9.70001 304.404 13.6V14.1C304.404 14.1 304.404 23.1 304.404 38.4C304.404 38.8 304.204 39.1 304.004 39.3L287.104 52.6H304.504V96.7H324.104C328.204 96.8 330.104 95.3 330.204 91.5V90.8V90.2V90.4V52.7H336.704H336.804H366.304C367.104 52.7 367.704 52.3 367.704 51.5V51V41.5H330.204V17C330.404 12.5 332.004 10.9 336.604 10.6H368.504C369.404 10.6 369.704 9.99999 369.704 9.29999V0H317.004" fill="black"/>
<path d="M279.104 52.5H254.404V96.6H273.904C277.404 96.6 279.104 95.6 279.104 91.5V90.9V52.5Z" fill="black"/>
<path d="M193.004 89.0001C203.704 87.5001 207.304 81.1001 207.304 71.7001V5.40011C207.304 1.40011 209.604 0.100124 212.204 0.200124C212.204 0.200124 229.904 0.200124 232.004 0.200124V62.9001C232.004 78.3001 228.804 86.1001 219.604 92.7001C214.804 96.1001 206.504 100 188.504 100C178.204 100 173.604 99.4001 173.004 99.3001C172.104 99.1001 171.804 98.6001 171.804 97.9001V89.7001C176.004 89.7001 185.704 90.0001 193.004 89.0001Z" fill="black"/>
</svg>
