<?xml version="1.0" encoding="UTF-8"?>
<!DOCTYPE svg PUBLIC "-//W3C//DTD SVG 1.1//EN" "http://www.w3.org/Graphics/SVG/1.1/DTD/svg11.dtd">
<!-- Creator: CorelDRAW 2020 (64-Bit) -->
<svg xmlns="http://www.w3.org/2000/svg" xml:space="preserve" width="158.755mm" height="24.262mm" version="1.1" style="shape-rendering:geometricPrecision; text-rendering:geometricPrecision; image-rendering:optimizeQuality; fill-rule:evenodd; clip-rule:evenodd"
viewBox="0 0 15875.96 2426.27"
 xmlns:xlink="http://www.w3.org/1999/xlink"
 xmlns:xodm="http://www.corel.com/coreldraw/odm/2003">
 <defs>
  <style type="text/css">
   <![CDATA[
    .fil0 {fill:black;fill-rule:nonzero}
   ]]>
  </style>
 </defs>
 <g id="Слой_x0020_1">
  <metadata id="CorelCorpID_0Corel-Layer"/>
  <g id="_2433699714832">
   <g>
    <path class="fil0" d="M1153.35 1639.4l-434.46 0 0 -555.11 282.32 0c53.45,0 98.95,-1.32 152.4,-4.23 71.86,-2.73 138.42,-38.64 180.2,-97.12 22.84,-30.1 37.45,-65.74 42.33,-103.19 4.76,-32.81 5.29,-60.85 2.12,-94.19 -11.47,-122.47 -114.33,-216.17 -237.36,-216.17 -0.41,0 -0.9,0 -1.31,0l-420.7 0.01 0 1799.75 -718.89 -0.01 0 -2369.14 1174.79 0c46.83,0 86.25,0.79 133.09,3.44 311.95,16.66 568.87,189.98 700.9,472.82 52.91,109.62 80.39,229.92 80.39,351.7 0,32.91 -2.08,66.03 -6.03,98.65 -32.69,334.93 -279.76,609.88 -609.34,678.12 -102.25,22.9 -207.01,34.67 -311.76,34.67 -2.77,0 -5.71,0 -8.48,0l-0.21 -0.01zm0 0l0 0 0 0z"/>
   </g>
   <g>
    <path id="a" class="fil0" d="M3822.82 2236.59c-9.53,-139.44 -14.82,-257.45 -17.73,-397.41 -3.7,-183.9 -5.82,-338.68 -7.14,-522.57 0.01,-0.03 0.01,-0.03 0.01,-0.03 0,-94.02 -12.3,-188.04 -36.5,-278.89 -29.39,-121.72 -109.3,-225.5 -219.6,-284.93 -64.83,-36.71 -135.12,-63.07 -208.03,-78.09 -126.92,-28.48 -256.95,-42.93 -387.18,-42.93 -106.73,0 -213.68,9.7 -318.47,28.89 -68.79,11.91 -126.21,28.58 -191.04,55.56 -145.74,57.62 -256.95,179.37 -301.09,329.74 -12.78,39.91 -19.35,81.72 -19.35,123.68 0,17 1.09,34.1 3.21,50.93 1.06,11.11 3.97,20.64 9,30.96l569.67 14.02c-0.21,-4.27 -0.33,-8.7 -0.33,-13 0,-30.05 5.33,-59.89 15.68,-88.07 17.23,-50.52 56.93,-90.32 107.42,-107.69 37.96,-14.53 78.41,-22.04 119.09,-22.04 36.79,0 73.41,6.13 108.17,18.07 49.7,15.37 88.47,54.65 103.21,104.53 9.53,31.75 4.76,63.5 -14.55,90.75 -15.87,23.24 -38.67,41.04 -65.1,50.78 -16.93,6.61 -31.75,11.11 -48.95,15.88 -74.48,20.06 -151.18,37.25 -227.61,49.53 -64.03,10.58 -118,20.37 -181.51,33.34 -81.39,15.82 -162.41,36.95 -241.45,62.79 -73.05,22.91 -140.17,62.06 -195.91,114.4 -74.71,66.38 -122.87,157.74 -135.42,256.94 -9.79,69.06 -7.41,129.12 7.94,197.12 36.13,172.63 165.91,310.74 335.99,357.48 77.95,23.76 159.32,36.02 240.9,36.02 109.5,0 218.1,-22 318.96,-64.39 86.78,-33.67 163.32,-89.59 221.79,-161.88l-40.22 -291.05c-26.82,42.8 -66.2,76.36 -112.73,96.03 -44.98,19.84 -85.99,30.43 -134.94,35.45 -41.01,3.97 -76.46,1.06 -116.15,-10.05 -30.8,-7.95 -58.67,-24.7 -80.16,-48.14 -18.86,-19.71 -31.74,-44.42 -37.04,-71.17 -1.77,-8.03 -2.67,-16.24 -2.67,-24.47 0,-33.86 15.17,-65.96 41.31,-87.46 20.98,-18.26 45.23,-32.49 71.44,-41.81 62.18,-22.8 126.59,-43.86 190.39,-61.87 81.76,-23.02 149.23,-47.89 226.76,-83.61 7.41,61.91 7.14,114.83 -1.59,176.49 -6.09,45.24 -20.11,82.55 -44.71,120.65l40.22 291.05c12.44,41.28 23.81,75.67 38.1,116.42 7.94,22.49 18.52,39.95 34.4,57.68l627.17 -0.02c-25.94,-39.87 -41.02,-85.92 -43.64,-133.37l-0.02 -0.24zm0 0l0 0 0 0z"/>
   </g>
   <g>
    <path id="b" class="fil0" d="M4572.93 855.69c78.44,-69.56 167.36,-127.34 262.8,-170.65 92.7,-44.54 194.34,-67.68 297.23,-67.68 68.68,0 137.19,10.4 202.77,30.61 180.86,49.82 323.6,189.24 377.62,368.88 26.66,81.66 40.23,167.26 40.23,253.22 0,2.19 0,4.59 0,6.78l0 1092.23 -672.1 0.06 0 -982.16c0,-32.81 -4.23,-60.85 -13.76,-92.08 -15.91,-54.94 -56.23,-99.54 -109.26,-120.91 -31.64,-13.6 -65.8,-20.66 -100.24,-20.66 -90.45,0 -174.08,48.24 -219.38,126.48 -25.97,42.94 -39.72,92.27 -39.72,142.47 0,1.28 0.03,2.59 0.03,3.83l0 943.01 -650.91 0.02 0 -1692.32 610.42 0 14.29 178.87 -0.01 0zm0 0l0 0 0 0z"/>
   </g>
   <g>
    <g>
     <path class="fil0" d="M7622.35 2236.59c-9.53,-139.44 -14.82,-257.45 -17.73,-397.41 -3.7,-183.9 -5.82,-338.68 -7.14,-522.57 0.01,-0.03 0.01,-0.03 0.01,-0.03 0,-94.02 -12.3,-188.04 -36.5,-278.89 -29.39,-121.72 -109.3,-225.5 -219.6,-284.93 -64.83,-36.71 -135.12,-63.07 -208.03,-78.09 -126.92,-28.48 -256.95,-42.93 -387.18,-42.93 -106.73,0 -213.68,9.7 -318.47,28.89 -68.79,11.91 -126.21,28.58 -191.04,55.56 -145.74,57.62 -256.95,179.37 -301.09,329.74 -12.78,39.91 -19.35,81.72 -19.35,123.68 0,17 1.09,34.1 3.21,50.93 1.06,11.11 3.97,20.64 9,30.96l569.67 14.02c-0.21,-4.27 -0.33,-8.7 -0.33,-13 0,-30.05 5.33,-59.89 15.68,-88.07 17.23,-50.52 56.93,-90.32 107.42,-107.69 37.96,-14.53 78.41,-22.04 119.09,-22.04 36.79,0 73.41,6.13 108.17,18.07 49.7,15.37 88.47,54.65 103.21,104.53 9.53,31.75 4.76,63.5 -14.55,90.75 -15.87,23.24 -38.67,41.04 -65.1,50.78 -16.93,6.61 -31.75,11.11 -48.95,15.88 -74.48,20.06 -151.18,37.25 -227.61,49.53 -64.03,10.58 -118,20.37 -181.51,33.34 -81.39,15.82 -162.41,36.95 -241.45,62.79 -73.05,22.91 -140.17,62.06 -195.91,114.4 -74.71,66.38 -122.87,157.74 -135.42,256.94 -9.79,69.06 -7.41,129.12 7.94,197.12 36.13,172.63 165.91,310.74 335.99,357.48 77.95,23.76 159.32,36.02 240.9,36.02 109.5,0 218.1,-22 318.96,-64.39 86.78,-33.67 163.32,-89.59 221.79,-161.88l-40.22 -291.05c-26.82,42.8 -66.2,76.36 -112.73,96.03 -44.98,19.84 -85.99,30.43 -134.94,35.45 -41.01,3.97 -76.46,1.06 -116.15,-10.05 -30.8,-7.95 -58.67,-24.7 -80.16,-48.14 -18.86,-19.71 -31.74,-44.42 -37.04,-71.17 -1.77,-8.03 -2.67,-16.24 -2.67,-24.47 0,-33.86 15.17,-65.96 41.31,-87.46 20.98,-18.26 45.23,-32.49 71.44,-41.81 62.18,-22.8 126.59,-43.86 190.39,-61.87 81.76,-23.02 149.23,-47.89 226.76,-83.61 7.41,61.91 7.14,114.83 -1.59,176.49 -6.09,45.24 -20.11,82.55 -44.71,120.65l40.22 291.05c12.44,41.28 23.81,75.67 38.1,116.42 7.94,22.49 18.52,39.95 34.4,57.68l627.16 -0.02c-25.93,-39.87 -41.01,-85.92 -43.63,-133.37l-0.02 -0.24zm0 0l0 0 0 0z"/>
    </g>
   </g>
   <g>
    <path class="fil0" d="M8561.65 1747.09c48.42,8.2 88.9,18.52 135.47,33.87 37.99,11.87 66.47,43.69 74.07,82.79 2.11,9.14 3.2,18.52 3.2,27.92 0,33.32 -13.49,65.24 -37.33,88.49 -30.01,31.13 -69.64,51.37 -112.45,57.41 -59.8,9.53 -112.71,4.76 -169.34,-15.88 -26.34,-9.11 -50.88,-23.04 -72.23,-40.98 -28.06,-23.08 -48.64,-54.08 -58.99,-88.91 -8.48,-26.8 -12.81,-54.82 -12.81,-82.94 0,-2.42 0.07,-4.9 0.1,-7.29l-619.67 0.02 0 35.98c0,58.21 9,107.69 29.37,162.45 31.22,82.02 73.82,145.52 138.11,205.33 79.13,75.39 176.26,130.18 281.82,158.77 138.64,41.05 282.97,62.14 427.65,62.14 81.42,0 163.02,-6.78 243.35,-19.8 104.96,-15.11 207.03,-48.38 300.84,-97.94 41.62,-21.43 80.84,-47.73 116.43,-78.04 120.03,-97.87 189.76,-244.62 189.76,-399.54 0,-55.75 -9.12,-111.25 -26.81,-164.04 -23.15,-75.14 -67.43,-142.15 -127.51,-192.91 -80.66,-71.29 -176.81,-123.63 -280.53,-152.63l-67.73 -19.31c-125.5,-35.31 -253.91,-62.9 -383.05,-81.67 -36.51,-5.29 -67.2,-11.11 -103.19,-19.58 -15.76,-3.5 -31.14,-8.88 -45.79,-15.68 -27.22,-12.2 -44.74,-39.26 -44.74,-69.07 0,-10.67 2.26,-21.23 6.62,-30.96l2.91 -5.82c19.19,-35.32 51.99,-61.35 90.76,-71.96 70.91,-20.37 136,-18.52 205.59,4.76 62.96,20.78 105.52,79.65 105.52,145.97 0,2.76 -0.09,5.54 -0.23,8.28l597.46 0c0,-0.02 0,-0.02 0,-0.02 0,-69.67 -12.38,-138.9 -36.49,-204.26 -23.31,-67.14 -65.84,-126.08 -122.25,-169.33 -48,-38.56 -101.93,-69.39 -159.55,-91 -55.73,-21.89 -113.96,-38.2 -173.06,-48.15 -102.32,-18.33 -206.5,-27.58 -310.45,-27.58 -38.1,0 -76.84,1.29 -114.72,3.66 -85.73,4.76 -157.96,15.35 -241.84,34.93 -112.71,26.46 -203.74,70.11 -294.76,141.55 -74.73,57.13 -130.84,135.5 -160.61,224.71 -16.19,48.39 -24.5,99.16 -24.5,150.22 0,61.71 12.12,122.92 35.6,179.99 45.68,120.06 140.57,214.96 260.61,260.59 62.71,24.87 117.48,41.28 183.63,54.77 130.44,26.99 240.78,47.89 372.01,70.38l-0.23 0.31zm2029.94 -1102.55c-66.94,-10.58 -124.09,-15.08 -191.83,-15.08 -67.73,0 -124.62,4.5 -191.83,15.08 -186.41,26.48 -359.49,112.44 -493.41,244.76 -148.07,137.74 -238.87,326.49 -254.1,528.14 -3.09,31.8 -4.74,63.95 -4.74,95.98 0,90.65 12.76,180.96 37.82,268.07 52.92,191.04 152.93,338.68 310.37,459.06 97.77,76.73 212.44,130.04 334.17,155.04 83.09,18.59 168.42,28.07 253.59,28.07 2.69,0 5.66,0 8.35,0 92.6,0 170.93,-7.94 261.68,-28.05 121.79,-25.01 236.5,-78.34 334.24,-155.1l-363.56 -396.31c-41.14,91.43 -132.09,150.28 -232.39,150.28 -36.08,0 -71.82,-7.68 -104.7,-22.49 -57.26,-24.8 -103.01,-70.55 -127.8,-127.8 -23.68,-51.77 -39.97,-106.83 -47.89,-163.26 -17.99,-119.06 -15.88,-222.26 7.14,-340.26 11.91,-61.12 32.54,-111.13 66.68,-163.51 45.73,-69.35 123.29,-111.17 206.39,-111.17 83.09,0 160.65,41.82 206.37,111.18 33.11,49.28 55.93,105.06 66.7,163.49 23.02,118.27 25.4,221.47 7.41,340.26 -9,59.53 -23.28,108.48 -47.89,163.25l363.55 396.36c152.4,-113.2 262.07,-275.3 310.11,-459.02 34.66,-124.35 44.71,-235.49 33.07,-364.08 -15.22,-201.7 -106.05,-390.32 -254.04,-528.1 -133.81,-132.29 -307.07,-218.28 -493.4,-244.76l-0.05 -0.03zm0 0l0 0 0 0z"/>
   </g>
   <g>
    <path class="fil0" d="M12057.95 855.69c78.43,-69.56 167.35,-127.34 262.79,-170.65 92.7,-44.54 194.34,-67.68 297.23,-67.68 68.68,0 137.19,10.4 202.77,30.61 180.86,49.82 323.6,189.24 377.62,368.88 26.66,81.66 40.23,167.26 40.23,253.22 0,2.19 0,4.59 0,6.78l0 1092.23 -672.09 0.06 0 -982.16c0,-32.81 -4.23,-60.85 -13.76,-92.08 -15.92,-54.94 -56.24,-99.54 -109.27,-120.91 -31.64,-13.6 -65.8,-20.66 -100.24,-20.66 -90.45,0 -174.08,48.24 -219.38,126.48 -25.97,42.94 -39.72,92.27 -39.72,142.47 0,1.28 0.03,2.59 0.03,3.83l0 943.01 -650.9 0.02 0 -1692.32 610.41 0 14.29 178.87z"/>
   </g>
   <g>
    <path class="fil0" d="M13368.74 0l0 447.16 632.64 -0.01 0 -447.15 -632.64 0zm0 677.08l0 1692.33 632.64 0 0 -1692.33 -632.64 0zm2332.11 1472.72c-120.5,130.26 -280.05,218.56 -454.6,251.11 -122.77,24.87 -230.2,30.16 -354.82,17.2 -158.07,-14.16 -309.1,-73.14 -434.92,-169.88 -104.3,-76.09 -191.35,-173.98 -254.83,-286.35 -50.67,-85.99 -84.83,-181.17 -100.03,-279.89 -23.81,-143.93 -17.46,-270.41 20.37,-411.17 86.52,-320.16 327.04,-546.91 651.69,-614.38 185.22,-38.36 349.79,-34.4 533.16,12.96 124.72,30.69 239.66,93.64 332.64,182.32 59.5,54.25 108.88,119.02 145.48,190.76 40.08,74.23 61.15,157.51 61.15,241.9 0,11.06 -0.43,22.25 -1.12,33.25l-578.63 0.03c-10.9,-74.79 -51.33,-142.04 -112.19,-186.79 -41.42,-32.47 -92.56,-50.12 -145.2,-50.12 -44.82,0 -88.75,12.82 -126.52,36.88 -57.35,34.43 -99.87,89.08 -119.05,153.16 -25.88,78.75 -39.14,161.29 -39.14,244.22 0,74.52 10.69,148.95 31.68,220.43 17.16,64.38 52.37,122.59 101.37,167.75 45.16,44.45 106.08,69.4 169.47,69.4 13.24,0 26.54,-1.12 39.58,-3.27 47.4,-6.07 90.97,-29.48 122.24,-65.61 33.5,-36.28 55.62,-81.69 63.48,-130.45 6.35,-35.72 9.79,-66.15 11.91,-102.39l609.88 0.03c1.32,16.61 2.07,33.57 2.07,50.31 0,160.26 -62.91,314.18 -175.14,428.57l0.03 0.03zm0 0l0 0 0 0z"/>
   </g>
  </g>
 </g>
</svg>
