<svg width="800" height="168" viewBox="0 0 800 168" fill="none" xmlns="http://www.w3.org/2000/svg">
<path d="M130.62 151.03C93.425 151.03 63.281 120.87 63.281 83.668C63.281 46.464 93.425 16.333 130.62 16.333C143.73 16.333 155.97 20.072 166.31 26.553L130.62 83.668L197.81 44.872C190.51 33.241 180.04 23.219 167.38 15.614C151.27 5.969 128.86 0 104.08 0C68.732 0 37.721 12.845 20.427 32.081C7.623 46.301 0 64.198 0 83.667C0 103.15 7.623 121.06 20.427 135.29C37.766 154.55 68.315 167.32 103.08 167.32C137.84 167.32 168.38 154.54 185.73 135.29C186.68 134.23 187.6 133.16 188.47 132.05L185.85 122.23C173.66 139.63 153.47 151.03 130.62 151.03" fill="black"/>
<path d="M353.38 163.27L325.18 58.07C320.65 41.07 305.17 28.575 286.74 28.575C281.96 28.575 277.38 29.429 273.13 30.975L212.42 53.0509H274.86L285.53 92.899C275.18 83.991 261.7 78.5709 246.94 78.5709C217.63 78.5709 193.9 98.212 193.9 122.44C193.9 146.67 217.63 166.34 246.94 166.34C268.04 166.34 286.7 156.01 298.21 140.14L304.4 163.27H353.38M267.36 146.93C253.84 146.93 242.88 135.98 242.88 122.44C242.88 108.92 253.84 97.9599 267.36 97.9599C280.88 97.9599 291.85 108.92 291.85 122.44C291.85 135.98 280.88 146.93 267.36 146.93Z" fill="black"/>
<path d="M468.36 28.593C464.66 28.593 461.16 29.411 458.04 30.876L419.06 49.042C417.13 37.438 407.05 28.593 394.89 28.593C391.21 28.593 387.7 29.411 384.54 30.876L336.95 53.051H370.41V163.271H419.39V65.313C419.39 58.554 424.86 53.052 431.64 53.052C438.38 53.052 443.89 58.554 443.89 65.313V163.271H492.85V53.051C492.85 39.534 481.88 28.594 468.36 28.594" fill="black"/>
<path d="M652.01 97.959C652.01 136.27 620.96 167.32 582.66 167.32C544.33 167.32 513.26 136.27 513.26 97.959C513.26 59.658 544.33 28.593 582.66 28.593C620.96 28.593 652.01 59.659 652.01 97.959M585.53 49.645C583.35 41.483 574.96 36.638 566.8 38.832C558.65 41.017 553.78 49.412 555.97 57.573L579.76 146.27C581.96 154.44 590.33 159.28 598.49 157.12C606.65 154.91 611.5 146.52 609.31 138.36L585.53 49.645V49.645Z" fill="black"/>
<path d="M775.52 28.593C771.81 28.593 768.29 29.411 765.12 30.876L726.18 49.042C724.26 37.438 714.18 28.593 702.02 28.593C698.34 28.593 694.83 29.411 691.66 30.876L644.09 53.051H677.54V163.271H726.51V65.313C726.51 58.554 731.99 53.052 738.77 53.052C745.53 53.052 751 58.554 751 65.313V163.271H800V53.051C800 39.534 789.02 28.594 775.52 28.594" fill="black"/>
</svg>
