<?xml version="1.0" encoding="UTF-8"?>
<!DOCTYPE svg PUBLIC "-//W3C//DTD SVG 1.1//EN" "http://www.w3.org/Graphics/SVG/1.1/DTD/svg11.dtd">
<!-- Creator: CorelDRAW 2020 (64-Bit) -->
<svg xmlns="http://www.w3.org/2000/svg" xml:space="preserve" width="52.2807mm" height="34.6137mm" version="1.1" style="shape-rendering:geometricPrecision; text-rendering:geometricPrecision; image-rendering:optimizeQuality; fill-rule:evenodd; clip-rule:evenodd"
viewBox="0 0 3011.54 1993.87"
 xmlns:xlink="http://www.w3.org/1999/xlink"
 xmlns:xodm="http://www.corel.com/coreldraw/odm/2003">
 <defs>
  <style type="text/css">
   <![CDATA[
    .fil1 {fill:#010101}
    .fil2 {fill:#D4C758}
    .fil3 {fill:#E4D776}
    .fil0 {fill:#F1F1F2}
   ]]>
  </style>
 </defs>
 <g id="Слой_x0020_1">
  <metadata id="CorelCorpID_0Corel-Layer"/>
  <g id="_3111856645392">
   <g>
    <polygon class="fil0" points="914.72,355.94 1211.3,359.67 1215.61,271.83 911.2,269.54 "/>
    <path class="fil0" d="M393.28 363.03c98.69,-54.01 78.77,-34.06 171.39,-3.91l57.58 2.15 8.78 -91.13 -302.17 0.93 3.37 88.48 61.05 3.47z"/>
    <path class="fil0" d="M140.41 822.71c19.41,-22.76 19.49,-28.4 19.84,-71.27l-77.55 -5.56 -25.59 21.7 4.16 46.35 79.14 8.78z"/>
    <path class="fil0" d="M2861.75 817.85l86.87 -0.73c7.7,-43.39 12.2,-49.92 -21.57,-71.88l-74.71 0.32 9.41 72.29z"/>
   </g>
   <g>
    <path class="fil1" d="M1740.34 528.87c376.51,-44.22 687.29,231.67 723.84,557.71 43.67,389.57 -226.37,684.72 -558.42,731.44 -381.03,53.61 -688.71,-233.28 -730.79,-562.12 -48.91,-382.14 236.12,-688.35 565.38,-727.03zm778.39 742.28l4.99 -155.09 -9.3 -75.92c59.36,1.08 96.72,-5.24 138.93,30.14 80.63,67.59 93.58,237.34 -137.7,237.24l3.08 -36.38zm-2369.21 -585.05c-36.49,1.27 -75.54,-2.13 -103.62,13.78 -26.85,15.22 -45.02,44.98 -45.85,79.96 -2.11,89.48 66.04,92.96 143.95,102 13.92,-26 27.5,-39.15 -3.59,-59.14l-79.14 -8.78 -4.16 -46.35 25.59 -21.7c42.52,-12.74 318.21,-4.33 389.1,-4.24 188.95,0.22 195.69,-12.71 301.28,-100.36l1.96 1179.87c-105.29,38.73 -475.76,-25.31 -578.36,15.79 -1.02,65.18 30.37,48.39 101.86,47.14l468.28 3.66 14.99 63.8c83.71,-4.83 23.12,-16 66.39,-67.5 542.95,12.49 1195.49,0.8 1759.98,0.71 170.4,-0.03 204.54,22.21 205.03,-50.49l-712.17 -6.24c124.48,-87.24 230.79,-121.93 332.15,-307.27l75.32 -151.91c61.99,-21.16 104.77,6.27 178.63,-41.79 90.74,-59.03 110.64,-217.33 2.66,-303.57 -62.58,-49.98 -121.4,-26.88 -188.33,-44.92 -80.77,-146.06 -68.61,-237.5 -289.62,-392.44 -44.5,-31.2 -94.71,-57.26 -155.56,-78.57 -506.82,-177.47 -1033.65,250.25 -928.39,806.65 33.45,176.81 141.5,324.76 266.77,424.99 45.64,36.51 109.16,57.32 144.03,88.85l-707.4 -0.42c-11.82,-314.31 -1.25,-744.32 -0.73,-1078.41 0.1,-62.92 18.35,-318.48 -23.08,-351.48 -75.94,25.66 0.5,70.58 -62.95,176.23 -25.25,42.04 -76.61,87.61 -131.61,104.21 -64.23,19.4 -375.74,9.3 -463.46,7.94z"/>
    <path class="fil1" d="M1706.74 665.65c314.35,-69.86 575.26,150.78 623.97,401.99 60.33,311.09 -150.6,561.59 -396.77,615.99 -320.44,70.81 -569.64,-155.06 -623.1,-399.16 -69.04,-315.27 150.4,-564.25 395.9,-618.82zm-459.86 582.25c35.58,290.49 308.85,543.55 649.05,499.45 298.72,-38.72 532.15,-305.57 496.23,-650.28 -30.32,-291.06 -311.05,-536.91 -645.42,-496.88 -294.7,35.28 -541.59,307.07 -499.86,647.7z"/>
    <path class="fil1" d="M2157.11 1227.55c-83.03,447.92 -751.41,334.05 -672.23,-117.14 28.63,-163.17 194.87,-309.15 394.16,-272.48 163.99,30.16 315.52,187.6 278.07,389.62zm-428.34 -438.72c-518.62,127.27 -319.84,900.52 192.78,768.69 496.47,-127.68 315.53,-893.43 -192.78,-768.69z"/>
    <path class="fil1" d="M1468.78 376.43c50.79,21.45 452.7,10.46 559.56,10.53 48.94,-0.01 108.28,7.13 141.11,-12.6 -2.71,-60.35 -26.05,-42.18 -171.63,-42.05l-427.28 -0.23c-59.87,-0.05 -101.09,-15.26 -101.76,44.35z"/>
    <polygon class="fil1" points="857.22,356.62 914.72,355.94 911.2,269.54 1215.61,271.83 1224.18,358.18 1273.78,359.09 1274.89,214.83 861.04,213.63 "/>
    <polygon class="fil1" points="268.39,353.11 318.59,362.02 328.86,271.08 631.03,270.15 634.36,358.02 684.78,359.2 686.36,214.24 273.26,213.66 "/>
    <path class="fil1" d="M421.06 420.44c22.95,-19.5 35.49,-41.88 74.41,-31.03 29.48,8.23 51,33.85 44.28,71.43 -11.64,65.07 -128.99,82.79 -118.69,-40.41zm-27.79 -57.41c-46.69,85.08 -34.27,197.07 79.08,202.98 53.85,2.81 95.12,-31.26 111.17,-61.41 30.94,-58.12 -1.47,-104.71 -18.86,-145.48 -92.63,-30.15 -72.7,-50.11 -171.39,3.91z"/>
    <path class="fil1" d="M2927.05 745.24c33.77,21.95 29.27,28.48 21.57,71.88l-86.87 0.73 -3.94 59.33c74.49,2.1 125.03,-3.66 146.01,-58.01 25.74,-66.68 -16.18,-118.98 -77.14,-129.38l-69.87 0.1 -2.45 38.91 72.7 16.45z"/>
    <path class="fil1" d="M2559.71 1107.28c5.24,60.67 15.51,12.39 58.15,59.2 -20.33,66.27 -41.39,9.26 -57.1,67.27 9.18,46.45 58.3,27.13 82.42,8.64 25.4,-19.46 32.76,-52 28.05,-96.27 -19.75,-32.45 -73.99,-94 -111.52,-38.85z"/>
   </g>
   <g>
    <path class="fil2" d="M2028.34 386.96c-106.85,-0.07 -508.76,10.92 -559.56,-10.53 0.67,-59.61 41.89,-44.4 101.76,-44.35l427.28 0.23c145.59,-0.13 168.92,-18.3 171.63,42.05 -32.83,19.73 -92.17,12.59 -141.11,12.6zm-754.55 -27.87l-49.61 -0.91 -8.57 -86.35 -4.31 87.84 -296.58 -3.73 -57.5 0.69 -172.44 2.57 -50.42 -1.18 -3.34 -87.87 -8.78 91.13 -57.58 -2.15c17.38,40.77 49.8,87.36 18.86,145.48 -16.05,30.14 -57.32,64.21 -111.17,61.41 -113.35,-5.9 -125.77,-117.9 -79.08,-202.98l-61.05 -3.47 -3.37 -88.48 -10.27 90.94 -50.2 -8.91c-187.98,79.42 -72.61,173.94 -118.87,332.99 87.72,1.36 399.23,11.45 463.46,-7.94 54.99,-16.6 106.36,-62.17 131.61,-104.21 63.45,-105.65 -13,-150.57 62.95,-176.23 41.43,33 23.17,288.56 23.08,351.48 -0.52,334.09 -11.09,764.1 0.73,1078.41l707.4 0.42c-34.87,-31.53 -98.39,-52.34 -144.03,-88.85 -125.27,-100.23 -233.32,-248.18 -266.77,-424.99 -105.26,-556.4 421.57,-984.12 928.39,-806.65 60.85,21.31 111.05,47.37 155.56,78.57 221.01,154.94 208.85,246.38 289.62,392.44 66.94,18.04 125.75,-5.05 188.33,44.92 107.99,86.24 88.08,244.54 -2.66,303.57 -73.86,48.06 -116.65,20.63 -178.63,41.79l-75.32 151.91c-101.36,185.34 -207.67,220.03 -332.15,307.27l712.17 6.24c-0.49,72.7 -34.63,50.46 -205.03,50.49 -564.49,0.09 -1217.03,11.79 -1759.98,-0.71 -43.28,51.5 17.32,62.67 -66.39,67.5l-14.99 -63.8 -468.28 -3.66c-71.49,1.25 -102.88,18.04 -101.86,-47.14 102.59,-41.11 473.07,22.94 578.36,-15.79l-1.96 -1179.87c-105.59,87.66 -112.33,100.59 -301.28,100.36 -70.89,-0.09 -346.58,-8.5 -389.1,4.24l77.55 5.56c-0.36,42.87 -0.44,48.51 -19.84,71.27 31.09,19.99 17.51,33.14 3.59,59.14 31.57,38.69 13.23,234.13 13.12,294.81 -0.17,101.79 0.16,203.55 0.21,305.34 0.05,101.72 0.42,203.69 -0.48,305.38 -2.28,255.82 118.12,200.09 416.7,199.77 101.76,-0.11 203.5,2.78 305.2,0.84l1230.97 -0.73c191.7,-0.39 435.11,14.24 619.82,1.16 102.31,-7.25 124.86,-79.61 124.83,-180.62 -0.06,-213.88 -13.73,-794.07 3.44,-930.61l3.94 -59.33 -9.41 -72.29 74.71 -0.32 -72.7 -16.45 2.45 -38.91 69.87 -0.1c-20.28,-10.33 -6.07,-1.62 -25.2,-6.06l-44.46 -11.9c-41.63,-286.95 107.42,-317.53 -401.41,-312.19 -35.98,0.37 -88.63,4.99 -122.34,1.84 -57.5,-5.36 -90.78,-86.73 -165.64,-189.15 -26.12,-35.73 -76.01,-112.13 -103.66,-140.67 -44.52,-45.94 -150.13,-26.9 -218.77,-26.94 -295.12,-0.13 -219.7,-52.05 -389.72,191.42 -79.79,114.27 -101.54,169.48 -181.71,162.94z"/>
    <path class="fil2" d="M2157.11 1227.55c37.45,-202.02 -114.08,-359.46 -278.07,-389.62 -199.29,-36.66 -365.52,109.31 -394.16,272.48 -79.18,451.19 589.2,565.05 672.23,117.14z"/>
    <path class="fil2" d="M1728.76 788.83c508.31,-124.75 689.24,641.01 192.78,768.69 -512.62,131.84 -711.4,-641.42 -192.78,-768.69zm-22.03 -123.18c-245.5,54.57 -464.94,303.55 -395.9,618.82 53.46,244.11 302.66,469.97 623.1,399.16 246.17,-54.4 457.1,-304.91 396.77,-615.99 -48.72,-251.21 -309.62,-471.85 -623.97,-401.99z"/>
    <path class="fil2" d="M1246.88 1247.9c-41.73,-340.64 205.15,-612.42 499.86,-647.7 334.37,-40.03 615.1,205.82 645.42,496.88 35.92,344.7 -197.51,611.56 -496.23,650.28 -340.21,44.1 -613.47,-208.96 -649.05,-499.45zm493.46 -719.03c-329.26,38.67 -614.28,344.89 -565.38,727.03 42.09,328.83 349.76,615.72 730.79,562.12 332.05,-46.72 602.09,-341.87 558.42,-731.44 -36.54,-326.04 -347.33,-601.93 -723.84,-557.71z"/>
    <path class="fil2" d="M421.06 420.44c-10.31,123.2 107.04,105.48 118.69,40.41 6.72,-37.58 -14.8,-63.21 -44.28,-71.43 -38.92,-10.86 -51.45,11.52 -74.41,31.03z"/>
    <path class="fil2" d="M2523.72 1116.07l-4.99 155.09c1.68,-1.26 2.7,-6.73 3.29,-5.36 6.92,16.05 6.08,-9.6 8.08,-11.52 22.63,-21.81 -4.81,-12.71 30.66,-20.51 15.71,-58.01 36.77,-1 57.1,-67.27 -42.64,-46.81 -52.91,1.47 -58.15,-59.2l-17.14 22.19c-0.73,1.01 -2.6,3.79 -3.88,5.7 -5.82,-38.73 1.77,-3.93 -14.97,-19.11z"/>
   </g>
   <path class="fil3" d="M2523.72 1116.07c16.75,15.17 9.15,-19.63 14.97,19.11 1.28,-1.91 3.16,-4.68 3.88,-5.7l17.14 -22.19c37.53,-55.15 91.77,6.4 111.52,38.85 4.72,44.27 -2.65,76.81 -28.05,96.27 -24.12,18.48 -73.24,37.81 -82.42,-8.64 -35.47,7.81 -8.04,-1.3 -30.66,20.51 -2,1.92 -1.16,27.57 -8.08,11.52 -0.59,-1.37 -1.61,4.11 -3.29,5.36l-3.08 36.38c231.28,0.1 218.33,-169.65 137.7,-237.24 -42.21,-35.38 -79.57,-29.06 -138.93,-30.14l9.3 75.92z"/>
  </g>
 </g>
</svg>
