<?xml version="1.0" encoding="UTF-8"?>
<!DOCTYPE svg PUBLIC "-//W3C//DTD SVG 1.1//EN" "http://www.w3.org/Graphics/SVG/1.1/DTD/svg11.dtd">
<!-- Creator: CorelDRAW 2020 (64-Bit) -->
<svg xmlns="http://www.w3.org/2000/svg" xml:space="preserve" width="42.8067mm" height="30.3997mm" version="1.1" style="shape-rendering:geometricPrecision; text-rendering:geometricPrecision; image-rendering:optimizeQuality; fill-rule:evenodd; clip-rule:evenodd"
viewBox="0 0 2270.3 1612.28"
 xmlns:xlink="http://www.w3.org/1999/xlink"
 xmlns:xodm="http://www.corel.com/coreldraw/odm/2003">
 <defs>
  <style type="text/css">
   <![CDATA[
    .fil0 {fill:#01020A}
    .fil1 {fill:#AEDCDB}
   ]]>
  </style>
 </defs>
 <g id="Слой_x0020_1">
  <metadata id="CorelCorpID_0Corel-Layer"/>
  <g id="_3111852831680">
   <g>
    <path class="fil0" d="M1337.37 428.14c581.03,-129.59 754.4,765.55 187.6,876.92 -582.53,114.47 -760.26,-749.19 -187.6,-876.92zm40.16 -59.31c-657.73,83.4 -545.63,1065.37 111.84,994.52 647.71,-69.81 534.95,-1076.53 -111.84,-994.52z"/>
    <path class="fil0" d="M1366.29 549.86c415.86,-90.24 541.74,551.04 129.33,632.9 -414.71,82.32 -546.9,-542.29 -129.33,-632.9zm432.97 387.67c87.4,-508.72 -654.15,-609.31 -736.73,-141.77 -87.89,497.6 655.24,616.02 736.73,141.77z"/>
    <path class="fil0" d="M0.74 374.38c109.05,-2.18 283.96,-34.24 333.74,90.26 17.44,43.62 19.94,755.98 -2.07,806.65 -52.1,119.99 -212.54,87.86 -327.32,88.8l-5.09 52.66c129.43,-3.24 300.21,31.15 371.37,-102.22 42.61,-79.87 25.19,-339.22 25.21,-441.48 0.1,-398.99 84.38,-573.48 -391.59,-548.15l-4.26 53.49z"/>
    <path class="fil0" d="M1296.76 977.11c-63.66,-56.96 -52.66,-159.78 -3.29,-222.74 67.99,-5.3 146.84,-2.12 216.33,-2.85 79.17,-0.84 101.44,36.17 99.33,117.39 -2.06,79.59 -23.12,111.82 -99.18,111.13 -68.93,-0.62 -146.01,4.65 -213.18,-2.93zm-34.36 52.85c64.51,4.53 134.81,1.64 200.08,1.79 62.55,0.13 126.06,16.93 162.49,-37.57 50.33,-75.28 44.9,-262.81 -34.64,-290.21 -19.39,-6.68 -160.74,-2.34 -193.25,-2.53 -67.96,-0.41 -118.45,-18.64 -157.68,37.71 -71.12,102.13 -37.26,198.28 23,290.81z"/>
    <path class="fil0" d="M1754.36 374.05c25.19,49.28 141.85,26.82 193.93,26.82 57.1,0 192.5,24.8 180.1,-41.28 -38.73,-23.25 -140.8,-10.41 -189.44,-10.43 -47.5,-0.03 -162.32,-20.84 -184.59,24.9z"/>
    <path class="fil0" d="M1755.69 255.69c0.24,62.95 107.54,39.93 164.58,39.89 50.39,-0.04 172.23,11.52 210.14,-11.66 12,-62.79 -112.66,-40.79 -163.43,-40.71 -52.61,0.09 -170.05,-11.83 -211.29,12.48z"/>
    <path class="fil0" d="M349.18 74.43l1.08 42.67c69.75,4.18 28.25,-28.24 93.33,-63.91 79.73,-14.17 72.29,17.55 107.2,62.39l41.5 -3.18c-7.89,-63.76 -44.41,-108.19 -111.35,-111.96 -78.6,-4.43 -89.13,24.88 -131.75,73.99z"/>
   </g>
   <g>
    <path class="fil1" d="M1377.53 368.83c646.8,-82.02 759.56,924.71 111.84,994.52 -657.47,70.85 -769.57,-911.11 -111.84,-994.52zm750.86 -9.24c12.4,66.08 -123,41.28 -180.1,41.28 -52.09,0 -168.74,22.46 -193.93,-26.82 22.28,-45.73 137.09,-24.92 184.59,-24.9 48.64,0.03 150.71,-12.81 189.44,10.43zm2.02 -75.68c-37.9,23.19 -159.74,11.63 -210.14,11.66 -57.05,0.04 -164.34,23.07 -164.58,-39.89 41.24,-24.32 158.68,-12.39 211.29,-12.48 50.77,-0.08 175.43,-22.08 163.43,40.71zm-1781.23 -209.48l-17.13 43.71c-188.87,12.73 -352.26,-62.22 -327.06,202.75 475.96,-25.32 391.69,149.16 391.59,548.15 -0.02,102.25 17.4,361.61 -25.21,441.48 -71.16,133.38 -241.94,98.98 -371.37,102.22 15.7,118.63 -14.33,199 154.47,198.84l1756.45 0.4c380.47,-1.24 349.37,32.44 350.21,-350.28 0.52,-236.82 -0.19,-473.7 0.03,-710.52 0.31,-341.03 86.25,-432.17 -275.51,-431.71 -192.46,0.24 -1299.16,12.08 -1393.38,-7.06l-41.5 3.18c-34.9,-44.84 -27.46,-76.56 -107.2,-62.39 -65.08,35.67 -23.59,68.09 -93.33,63.91l-1.08 -42.67z"/>
    <path class="fil1" d="M5.09 1360.09c114.78,-0.93 275.21,31.19 327.32,-88.8 22,-50.67 19.51,-763.03 2.07,-806.65 -49.78,-124.5 -224.69,-92.44 -333.74,-90.26l4.35 985.71z"/>
    <path class="fil1" d="M1262.4 1029.96c-60.26,-92.53 -94.12,-188.68 -23,-290.81 39.23,-56.35 89.72,-38.12 157.68,-37.71 32.51,0.19 173.86,-4.15 193.25,2.53 79.54,27.4 84.97,214.93 34.64,290.21 -36.43,54.49 -99.94,37.7 -162.49,37.57 -65.28,-0.14 -135.57,2.74 -200.08,-1.79zm103.89 -480.09c-417.57,90.61 -285.38,715.22 129.33,632.9 412.41,-81.86 286.53,-723.14 -129.33,-632.9z"/>
    <path class="fil1" d="M1799.26 937.53c-81.48,474.25 -824.62,355.83 -736.73,-141.77 82.58,-467.54 824.13,-366.95 736.73,141.77zm-461.89 -509.4c-572.66,127.73 -394.93,991.39 187.6,876.92 566.8,-111.37 393.43,-1006.51 -187.6,-876.92z"/>
    <path class="fil1" d="M1296.76 977.11c67.17,7.58 144.25,2.31 213.18,2.93 76.06,0.69 97.12,-31.55 99.18,-111.13 2.11,-81.22 -20.16,-118.23 -99.33,-117.39 -69.49,0.74 -148.34,-2.45 -216.33,2.85 -49.37,62.96 -60.38,165.79 3.29,222.74z"/>
   </g>
  </g>
 </g>
</svg>
