<?xml version="1.0" encoding="UTF-8"?>
<!DOCTYPE svg PUBLIC "-//W3C//DTD SVG 1.1//EN" "http://www.w3.org/Graphics/SVG/1.1/DTD/svg11.dtd">
<!-- Creator: CorelDRAW 2020 (64-Bit) -->
<svg xmlns="http://www.w3.org/2000/svg" xml:space="preserve" width="64.4623mm" height="32.8308mm" version="1.1" style="shape-rendering:geometricPrecision; text-rendering:geometricPrecision; image-rendering:optimizeQuality; fill-rule:evenodd; clip-rule:evenodd"
viewBox="0 0 5061.08 2577.62"
 xmlns:xlink="http://www.w3.org/1999/xlink"
 xmlns:xodm="http://www.corel.com/coreldraw/odm/2003">
 <defs>
  <style type="text/css">
   <![CDATA[
    .fil0 {fill:#02020A}
    .fil1 {fill:#B373BD}
   ]]>
  </style>
 </defs>
 <g id="Слой_x0020_1">
  <metadata id="CorelCorpID_0Corel-Layer"/>
  <g id="_3111902210400">
   <g>
    <path class="fil0" d="M4427.35 1020.42c264.09,-71.89 491.67,126.65 542.58,327.77 70.45,278.26 -123.99,506.69 -328.83,554.98 -571.7,134.78 -833.94,-713.91 -213.75,-882.75zm-191.35 893.07c-117.05,15.22 -322.61,3.84 -449.25,3.64 -278.9,-0.46 -605.17,47.01 -783.84,-125.05 -271.3,-261.26 -126,-774.62 326.25,-787.12 285.21,-7.88 617.35,-9.33 901.91,-0.07l-47.46 55.8c-16.27,16.46 -26.56,24.27 -43.24,39.2 -201.67,180.48 -181.46,569.17 13.8,745.77 6.32,5.72 79.12,65.97 81.83,67.83zm-480.98 83.59c-34.99,68.67 -236.12,140.35 -332.04,154.93 -390.64,59.38 -799.11,-243.84 -799.7,-686.13 -0.92,-672.93 820.46,-879.29 1133.51,-537.49 -247.53,2.09 -557.33,-33.32 -749.78,104.81 -292.72,210.09 -263.91,633.82 -51.72,820.26 194.43,170.83 521.9,139.34 799.73,143.62zm-790.12 156.88c-106.19,21.06 -420.84,5.46 -549.17,5.53 -179.36,0.09 -330.01,11.97 -490.09,-52.1 -581.23,-232.61 -574.82,-1082.63 14.63,-1296.06 174.71,-63.26 812.89,-63.15 1023.33,-43.57 -82.5,72.74 -138.97,81.61 -228.42,187.31 -18.06,21.35 -38.68,52.63 -57.85,80.65 -176.94,258.65 -167.45,598.83 1.77,858.54 37.5,57.56 83.84,104.79 130.11,146.72 52.62,47.66 101.74,68.07 155.69,112.99zm-334.6 82.3c-28.99,30.31 -65.06,44.55 -103.27,59.9 -990.33,397.84 -1760.2,-988.78 -812.54,-1599.56 292.91,-188.78 773.3,-165.65 922.79,-8.85 -352.04,18.85 -594.16,-51.3 -873.15,127.9 -460.85,296.01 -469.51,1001.17 5.79,1294.8 280.33,173.18 507.82,114.99 860.37,125.82zm533.61 -1.01c240,-3.76 374.31,-0.56 559.17,-114.04 157.62,-96.77 106.74,-120.61 202.11,-127.35 317.39,-22.41 672.87,67.27 905.18,-94.44 317.22,-220.81 296.23,-670.87 4.84,-871.79 -222.79,-153.61 -598.44,-81.3 -897.25,-97.37 -157.46,-8.47 -164.77,-259.02 -755.28,-239.36 -359.23,-23.45 -280.08,65.72 -508.06,-77.95 -42.22,-26.61 -81.49,-41.41 -131.92,-61.95 -200.02,-81.45 -459.02,-89.45 -670.46,-14.88 -846.23,298.44 -904.91,1486.41 -34.84,1838.85 247.86,100.4 579.33,78.31 814.63,-51.29 249.54,-137.44 86.48,-83.1 511.88,-88.43z"/>
    <path class="fil0" d="M-0 701.4l4.76 56.81 436 8.24c44.45,235.47 -37.91,1634.86 14.6,1785.89l53.51 5.39c46.49,-103.01 -18.81,-1657.92 17.81,-1787.79 178.36,-26.22 398.09,46.66 543.08,-94.05 40.65,-39.44 11.09,-23.04 62.64,-46.17 20.92,637.5 -34.91,427.33 -264.91,852.38 -46.35,85.64 -20,758.9 -24.18,951.58 -1.55,71.62 -17.8,101.95 35.21,133.72 73.7,-24.21 24.86,9.21 40.37,-37.98 1.85,-5.63 1.55,-71.23 1.26,-81.57 -1.5,-50.84 -1.25,-101.69 -1.42,-152.57l-0.3 -636.15c-1.7,-170.36 76.74,-237.22 205.7,-431.84 53.25,-80.36 87.84,-109.31 88.75,-230.95 1.52,-202.18 6.84,-436.71 -3.13,-636.26l-73 -2.19c-30.43,141.28 -8.68,154.91 -104.94,251.84 -174.19,175.37 -788.13,11.02 -1031.82,91.66z"/>
    <path class="fil0" d="M779.91 401.88c56.03,-9.55 98.51,-2.9 119.58,36.52 29.76,55.65 -5.61,79.7 -29.2,115.69 -142.11,18.16 -147.16,-75.11 -90.38,-152.2zm1192.37 -86.07l-97.63 -231.77 610.39 1.81c36.19,61.47 77.73,151.96 102.85,233.6l-615.61 -3.64zm-1260.48 40.29c-168.54,286.24 225.21,374.79 270.43,163.36 6.37,-29.77 -44.38,-403.73 284.03,-433.65 120.97,-11.02 390.87,-9.53 512.44,0.57l109.61 231.62 -332.04 -0.13c-56.4,3.4 -54.46,5.21 -74.75,42.06 14.2,22.23 -15.25,37.76 116.33,35.17l971.07 0.93c8.75,0.22 74.3,0.24 78.06,-1.19 62.35,-23.66 27.95,11.6 36.06,-62.48l-140.01 -320.84c-288.85,-23.8 -670.3,-3.31 -972.06,-3.16 -148.13,0.07 -323.98,-21.61 -450.16,40.39 -164.93,81.04 -134.12,137.56 -214.58,284.1 -109.07,-21.06 -109.39,-12.56 -194.44,23.27z"/>
    <path class="fil0" d="M4603.82 1629.25c-65.06,-0.07 -129.82,1.08 -194.78,1.5 -76.7,0.5 -95.09,7.55 -123.29,-55.04 -50.69,-112.46 -12.91,-188.14 26.23,-281.44l416.48 2.39c54.85,56.06 77.79,135.44 54.45,235.91 -27.28,117.38 -61.05,96.83 -179.09,96.7zm-316.29 -408.74c-92.13,124.71 -153.45,240.8 -47.79,429.02 46.05,82.03 123.4,55.77 239.45,55.39 98.23,-0.32 198.13,5.61 295.74,-3.08 91.58,-137 139.65,-269.08 36.63,-429.48 -50.99,-79.41 -117.05,-55.21 -235.43,-54.37 -93.43,0.66 -196.79,-4.12 -288.6,2.51z"/>
    <path class="fil0" d="M281 1465.75c2.58,105.38 -18.74,705.43 25.16,772.65 73.41,-17.99 53.06,-29.23 52.94,-205.76l0.05 -511.5c0.05,-55.7 1.16,-111.53 1.21,-167.11 0.06,-77.11 4.91,-94.1 -65.03,-96.41l-14.33 208.12z"/>
   </g>
   <g>
    <path class="fil1" d="M295.33 1257.63c69.95,2.31 65.09,19.31 65.03,96.41 -0.05,55.57 -1.16,111.41 -1.21,167.11l-0.05 511.5c0.12,176.53 20.47,187.77 -52.94,205.76 -43.9,-67.22 -22.58,-667.28 -25.16,-772.65l14.33 -208.12zm416.46 -901.53c-153.92,18.11 -364.45,-10.54 -526.61,0.42 -78.76,5.32 -134.73,47.55 -160.54,105.3 -29.25,65.46 -11.05,163.45 -24.64,239.58 243.69,-80.63 857.63,83.72 1031.82,-91.66 96.26,-96.92 74.51,-110.55 104.94,-251.84l73 2.19c9.97,199.55 4.65,434.09 3.13,636.26 -0.91,121.64 -35.5,150.59 -88.75,230.95 -128.96,194.62 -207.41,261.48 -205.7,431.84l0.3 636.15c0.17,50.88 -0.08,101.73 1.42,152.57 0.3,10.33 0.6,75.94 -1.26,81.57 -15.51,47.19 33.33,13.78 -40.37,37.98 -53.01,-31.77 -36.77,-62.1 -35.21,-133.72 4.18,-192.68 -22.16,-865.94 24.18,-951.58 230,-425.06 285.82,-214.89 264.91,-852.38 -51.54,23.13 -21.99,6.72 -62.64,46.17 -145,140.71 -364.72,67.83 -543.08,94.05 -36.62,129.87 28.69,1684.78 -17.81,1787.79l-53.51 -5.39c-52.51,-151.03 29.85,-1550.41 -14.6,-1785.89l-436 -8.24c23.28,422.82 2.97,900.21 3.43,1329.73 0.24,222.71 -55.76,463.48 181.32,478.56 219.65,13.97 440.41,-12.41 663.47,9.73 60.19,5.97 244.88,-9.42 330.22,-9.46l1661.85 0.43c297.11,1.85 316.04,-42.69 318.86,-331.96 -425.39,5.33 -262.33,-49.02 -511.88,88.43 -235.3,129.6 -566.77,151.69 -814.63,51.29 -870.06,-352.44 -811.38,-1540.41 34.84,-1838.85 211.43,-74.57 470.44,-66.57 670.46,14.88 50.44,20.54 89.71,35.34 131.92,61.95 227.98,143.68 148.83,54.5 508.06,77.95 -64.43,-100.37 32.38,-247.67 -117.03,-316.57 -109.8,-50.64 -267.99,5.72 -352.06,-23.5 -75.89,-26.37 60.34,50.62 -30.56,-18.49 -8.11,74.08 26.29,38.82 -36.06,62.48 -3.75,1.43 -69.3,1.41 -78.06,1.19l-971.07 -0.93c-131.59,2.6 -102.13,-12.94 -116.33,-35.17 20.3,-36.85 18.35,-38.66 74.75,-42.06l332.04 0.13 -109.61 -231.62c-121.58,-10.1 -391.47,-11.59 -512.44,-0.57 -328.42,29.92 -277.67,403.88 -284.03,433.65 -45.22,211.43 -438.97,122.88 -270.43,-163.36z"/>
    <path class="fil1" d="M2964.9 2153.96c-53.95,-44.92 -103.07,-65.33 -155.69,-112.99 -46.28,-41.93 -92.61,-89.16 -130.11,-146.72 -169.22,-259.71 -178.7,-599.89 -1.77,-858.54 19.17,-28.02 39.79,-59.3 57.85,-80.65 89.45,-105.71 145.91,-114.57 228.42,-187.31 -210.44,-19.57 -848.62,-19.68 -1023.33,43.57 -589.45,213.43 -595.86,1063.45 -14.63,1296.06 160.08,64.07 310.73,52.19 490.09,52.1 128.33,-0.06 442.98,15.53 549.17,-5.53z"/>
    <path class="fil1" d="M4236 1913.49c-2.71,-1.86 -75.51,-62.11 -81.83,-67.83 -195.26,-176.61 -215.47,-565.29 -13.8,-745.77 16.68,-14.93 26.98,-22.74 43.24,-39.2l47.46 -55.8c-284.56,-9.26 -616.7,-7.81 -901.91,0.07 -452.25,12.51 -597.55,525.87 -326.25,787.12 178.67,172.06 504.94,124.59 783.84,125.05 126.64,0.2 332.19,11.58 449.25,-3.64z"/>
    <path class="fil1" d="M3755.02 1997.08c-277.82,-4.28 -605.3,27.2 -799.73,-143.62 -212.19,-186.44 -241,-610.17 51.72,-820.26 192.46,-138.13 502.26,-102.73 749.78,-104.81 -313.05,-341.8 -1134.43,-135.43 -1133.51,537.49 0.6,442.3 409.06,745.51 799.7,686.13 95.92,-14.58 297.05,-86.25 332.04,-154.93z"/>
    <path class="fil1" d="M2630.31 2236.26c-352.55,-10.83 -580.04,47.37 -860.37,-125.82 -475.31,-293.63 -466.65,-998.79 -5.79,-1294.8 278.99,-179.2 521.11,-109.05 873.15,-127.9 -149.5,-156.8 -629.88,-179.93 -922.79,8.85 -947.66,610.79 -177.79,1997.41 812.54,1599.56 38.2,-15.35 74.28,-29.58 103.27,-59.9z"/>
    <path class="fil1" d="M4287.53 1220.51c91.81,-6.63 195.17,-1.85 288.6,-2.51 118.37,-0.84 184.43,-25.04 235.43,54.37 103.02,160.39 54.94,292.47 -36.63,429.48 -97.61,8.68 -197.51,2.76 -295.74,3.08 -116.05,0.38 -193.4,26.64 -239.45,-55.39 -105.66,-188.23 -44.34,-304.31 47.79,-429.02zm139.82 -200.09c-620.19,168.84 -357.95,1017.53 213.75,882.75 204.84,-48.29 399.28,-276.72 328.83,-554.98 -50.92,-201.12 -278.49,-399.67 -542.58,-327.77z"/>
    <path class="fil1" d="M4603.82 1629.25c118.04,0.13 151.81,20.69 179.09,-96.7 23.34,-100.46 0.4,-179.85 -54.45,-235.91l-416.48 -2.39c-39.14,93.3 -76.92,168.98 -26.23,281.44 28.2,62.6 46.59,55.55 123.29,55.04 64.96,-0.42 129.72,-1.57 194.78,-1.5z"/>
    <path class="fil1" d="M1972.27 315.81l615.61 3.64c-25.12,-81.64 -66.66,-172.13 -102.85,-233.6l-610.39 -1.81 97.63 231.77z"/>
    <path class="fil1" d="M779.91 401.88c-56.78,77.09 -51.72,170.36 90.38,152.2 23.59,-35.99 58.96,-60.04 29.2,-115.69 -21.07,-39.41 -63.55,-46.07 -119.58,-36.52z"/>
   </g>
  </g>
 </g>
</svg>
