<?xml version="1.0" encoding="UTF-8"?>
<!DOCTYPE svg PUBLIC "-//W3C//DTD SVG 1.1//EN" "http://www.w3.org/Graphics/SVG/1.1/DTD/svg11.dtd">
<!-- Creator: CorelDRAW 2020 (64-Bit) -->
<svg xmlns="http://www.w3.org/2000/svg" xml:space="preserve" width="53.9017mm" height="39.8501mm" version="1.1" style="shape-rendering:geometricPrecision; text-rendering:geometricPrecision; image-rendering:optimizeQuality; fill-rule:evenodd; clip-rule:evenodd"
viewBox="0 0 3171.88 2345"
 xmlns:xlink="http://www.w3.org/1999/xlink"
 xmlns:xodm="http://www.corel.com/coreldraw/odm/2003">
 <defs>
  <style type="text/css">
   <![CDATA[
    .fil1 {fill:#010001}
    .fil3 {fill:#EAA547}
    .fil0 {fill:#F1F1F3}
    .fil2 {fill:#F69321}
   ]]>
  </style>
 </defs>
 <g id="Слой_x0020_1">
  <metadata id="CorelCorpID_0Corel-Layer"/>
  <g id="_3111831380000">
   <g>
    <path class="fil0" d="M2524.82 500.24l-1.52 37.67c37.42,18.77 253.42,72.64 294.87,71.35 8.37,-40.18 20.55,-52.9 10.82,-85.63 -39.39,-16.52 -255.21,-68.07 -298.19,-65.33l-5.98 41.93z"/>
    <path class="fil0" d="M349.13 602.76c35.48,12.06 272.05,-42.56 301.72,-71.07l-12.37 -74.23 -303 65.4 13.65 79.9z"/>
    <path class="fil0" d="M3018.84 656.76l10.43 40.51 40.19 17.34c46.47,-33.72 54.65,-46.71 25,-91.88 -51.53,-5.05 -53.83,3.84 -75.62,34.02z"/>
    <path class="fil0" d="M101.59 713.38c34.14,-12.18 41.53,-20.55 52.05,-51.43 -20.3,-21.73 -44.38,-62.79 -87.7,-25.34 -12.7,43.55 8.37,58.32 35.65,76.78z"/>
   </g>
   <g>
    <path class="fil1" d="M1682.02 712.66c463.86,-93.13 863.33,260.94 919.4,643.37 69.74,475.74 -246.8,852 -648.1,920.49 -648.78,110.74 -1219.63,-602.74 -766.21,-1264.69 26.9,-39.29 52.6,-55.61 95.22,-101.69 24.44,-26.42 72.37,-62.94 110.36,-86.67 88.72,-55.42 167.83,-86.43 289.33,-110.82zm976.56 918.09c13.19,-104.17 11.7,-169.06 3.34,-273.74 258.63,-10.8 262.83,282.24 -3.34,273.74zm-1395.86 -1083.72l1112.38 -1.11 46.16 341.46c-39.26,-28.76 -70.07,-63 -118.46,-94.69 -254.48,-166.69 -555.29,-202.85 -838.04,-73.37 -178.72,81.84 -202.25,147.91 -253.67,171.67l51.63 -343.96zm16.55 -57.17c-10.65,-38.89 16.64,-162.67 23.69,-212.03 37.36,-261.76 28.93,-216.12 518.95,-216.07 103.66,0.01 390.71,-29.23 455.27,30.77 64.05,59.52 87.83,368.38 77.38,398.76l-1075.28 -1.43zm-56.59 -76.43l-55.06 361.92c-106.06,20.59 -456.26,-25.27 -514.06,13.85 -19.84,21.7 -5.75,182.95 -168.24,235.4 -73.76,23.81 -298,5.91 -394.3,11.76l2.74 55.94c256.75,8.24 433.44,36.09 556.1,-120.63 67.48,-86.23 14.92,-121.28 84.66,-138.05 44.52,82.09 -24.31,1285.7 24.92,1370.37l33.66 -1.47c25.32,-54.53 11.01,-1199.37 9.92,-1367.07l355.04 2.24c-1.51,123.78 -21.2,139.52 -69.92,219.94 -206.27,340.52 -137.3,800.57 151.42,1058.07 193.77,172.82 208.25,130.4 360.91,203.71 91.69,12.68 152.42,28.89 252.69,25 88.73,-3.44 155.83,-27.96 234.79,-34.67 53.91,-38.58 143.02,-67.1 199.4,-103.93 194.49,-127.02 288.09,-290.96 361.26,-517.62 82.84,-3.68 131.72,6.3 187.79,-41.82 39.66,-34.04 74.83,-80.87 74.65,-154.87 -0.46,-181.61 -162.11,-185.84 -256.55,-191.45 -19.38,-29.61 -47.25,-130.47 -70.24,-177.69 -26.65,-54.74 -77.62,-115.78 -89.86,-160.27 -29.36,-106.69 -46.69,-311.06 -63.7,-431.65 -60.59,-372.41 -10.27,-526.15 -287.75,-525.37 -942.45,2.67 -835.44,-89.25 -920.27,408.36z"/>
    <path class="fil1" d="M1703.08 867.85c383.5,-71.25 687.88,201.11 742.54,507.85 69.16,388.06 -200.25,685.22 -512.57,746.79 -376.36,74.2 -689.41,-207.29 -741.91,-507.81 -68.26,-390.73 199.46,-688.76 511.94,-746.82zm806.74 706.58c54.7,-398.46 -259.99,-732.2 -601.2,-770.12 -419.61,-46.64 -725.68,236.82 -778.41,595.16 -61.6,418.63 249.43,735.61 600.5,783.11 423.28,57.27 730.19,-251.78 779.11,-608.16z"/>
    <path class="fil1" d="M1731.78 1084.25c256.05,-53.69 455.95,124.53 496.46,321.32 110.49,536.79 -690.84,722.91 -819.53,178.13 -59.38,-251.38 126.65,-458.27 323.07,-499.45zm558.5 479.81c38.01,-286.3 -158.61,-500.12 -394.68,-542.19 -276.97,-49.35 -511.56,164 -546.73,390.62 -44.72,288.12 156.92,515.31 392.91,551.97 286.45,44.5 516.92,-162.6 548.49,-400.41z"/>
    <path class="fil1" d="M1500.87 305.07l673.89 0.78c49.62,-1.31 62.79,1.55 56.63,-43.29 -14.66,-26.17 -249.97,-15.3 -295.56,-15.28l-466.02 0.03c-109.34,0.07 -103.44,58.26 31.06,57.76z"/>
    <path class="fil1" d="M289.56 613.99c31.46,15.66 42.75,18.34 59.57,-11.23l-13.65 -79.9 303 -65.4 12.37 74.23 49.36 4.44 5.56 -38.95 -27.52 -109.95c-43.07,1.94 -379.49,80.75 -411.95,99.43l23.26 127.34z"/>
    <path class="fil1" d="M2462.89 509.98c4.3,19.98 -2.55,29.67 30.92,26.09 36.2,-3.86 14.15,5.08 31.01,-35.84l5.98 -41.93c42.99,-2.74 258.81,48.81 298.19,65.33 9.73,32.72 -2.45,45.45 -10.82,85.63 16.38,9 29.39,13.14 59.13,10.22l25.9 -133.37c-51.19,-30.72 -142.58,-39.54 -209,-55.31 -61.1,-14.51 -139.29,-37.03 -202.46,-47.16l-28.85 126.35z"/>
    <path class="fil1" d="M361.35 772.88c115.69,-98.43 188.11,103.42 30.78,93.9l-33.73 -23.61 2.95 -70.29zm3.4 -70.09c-144.94,72.03 -30.48,280.43 105.96,214.12 132.36,-64.32 46.51,-289.88 -105.96,-214.12z"/>
    <path class="fil1" d="M80.38 775.67c25.51,-26.45 24.22,-21.36 21.21,-62.29 -27.28,-18.45 -48.35,-33.23 -35.65,-76.78 43.32,-37.45 67.4,3.62 87.7,25.34 36.62,-2.79 33.07,2.02 59.77,-22.74 -23.23,-39.33 -109.29,-119.24 -182.4,-48.65 -77.25,74.59 9.29,156.7 49.37,185.11z"/>
    <path class="fil1" d="M2960.21 631.08c16.89,30.03 24.13,33.17 58.63,25.68 21.79,-30.19 24.09,-39.07 75.62,-34.02 29.65,45.16 21.47,58.16 -25,91.88 0.56,36.68 1.62,37.82 18.94,62.81 43.72,-22.32 126.22,-111.19 56.54,-185.43 -21.83,-23.26 -58.75,-39.09 -102.02,-24.25 -38.65,13.26 -49.02,35.76 -82.71,63.34z"/>
    <path class="fil1" d="M2705.47 1572.23c49.35,22.27 88.01,-6.57 110.89,-49.63 23.46,-148.27 -148.28,-136.42 -105.63,-72.24 19.1,28.73 26.76,3.83 53.82,41.14 -27.53,56.33 -62.08,3.69 -59.08,80.72z"/>
    <path class="fil1" d="M299.11 1195.59c48.19,17.48 196.71,21.28 235.96,-5.62 -1.59,-62.67 -46.55,-43.31 -111.18,-42.69 -107.12,1.02 -124.28,-14.07 -124.78,48.31z"/>
   </g>
   <g>
    <path class="fil2" d="M535.06 1189.97c-39.25,26.9 -187.76,23.1 -235.96,5.62 0.5,-62.38 17.65,-47.29 124.78,-48.31 64.63,-0.62 109.59,-19.98 111.18,42.69zm-441.29 -97.67c-18.59,267.99 -0.56,724.24 -4.03,1031.54 -1.39,123.1 26.34,190.27 147.16,193.23l1363.58 2.33c-152.66,-73.3 -167.14,-30.88 -360.91,-203.71 -288.71,-257.5 -357.69,-717.54 -151.42,-1058.07 48.72,-80.42 68.41,-96.17 69.92,-219.94l-355.04 -2.24c1.09,167.7 15.4,1312.54 -9.92,1367.07l-33.66 1.47c-49.22,-84.67 19.6,-1288.28 -24.92,-1370.37 -69.74,16.77 -17.18,51.82 -84.66,138.05 -122.66,156.72 -299.35,128.88 -556.1,120.63z"/>
    <path class="fil2" d="M2462.89 509.98c-12.99,17.85 -8.3,12.25 -32.18,20.46 17.01,120.59 34.34,324.96 63.7,431.65 12.25,44.49 63.22,105.53 89.86,160.27 22.99,47.22 50.85,148.08 70.24,177.69 94.44,5.61 256.08,9.84 256.55,191.45 0.19,74 -34.98,120.83 -74.65,154.87 -56.07,48.12 -104.95,38.14 -187.79,41.82 -73.17,226.66 -166.77,390.59 -361.26,517.62 -56.38,36.83 -145.49,65.35 -199.4,103.93 135.08,26.23 474.48,7.96 634.91,7.99 350,0.05 354.16,27.5 355.19,-276.89 0.55,-163.8 -15.86,-1207.91 10.34,-1263.42 -17.32,-24.99 -18.38,-26.13 -18.94,-62.81l-40.19 -17.34 -10.43 -40.51c-34.5,7.49 -41.73,4.35 -58.63,-25.68 -34.42,24.18 -51.88,7.5 -82.91,-11.6 -29.74,2.92 -42.75,-1.21 -59.13,-10.22 -41.44,1.29 -257.45,-52.58 -294.87,-71.35l1.52 -37.67c-16.86,40.92 5.19,31.98 -31.01,35.84 -33.47,3.58 -26.62,-6.11 -30.92,-26.09z"/>
    <path class="fil2" d="M2290.29 1564.06c-31.58,237.81 -262.05,444.91 -548.49,400.41 -235.99,-36.66 -437.63,-263.85 -392.91,-551.97 35.17,-226.62 269.75,-439.97 546.73,-390.62 236.06,42.06 432.69,255.89 394.68,542.19zm-587.2 -696.21c-312.48,58.06 -580.2,356.09 -511.94,746.82 52.5,300.52 365.55,582.01 741.91,507.81 312.32,-61.57 581.73,-358.72 512.57,-746.79 -54.67,-306.74 -359.05,-579.1 -742.54,-507.85z"/>
    <path class="fil2" d="M1731.78 1084.25c-196.43,41.19 -382.45,248.08 -323.07,499.45 128.69,544.77 930.02,358.66 819.53,-178.13 -40.51,-196.79 -240.41,-375.01 -496.46,-321.32z"/>
    <path class="fil2" d="M2509.83 1574.42c-48.92,356.38 -355.83,665.43 -779.11,608.16 -351.07,-47.5 -662.1,-364.48 -600.5,-783.11 52.73,-358.34 358.8,-641.8 778.41,-595.16 341.21,37.92 655.9,371.66 601.2,770.12zm-827.81 -861.76c-121.5,24.39 -200.61,55.4 -289.33,110.82 -37.99,23.73 -85.92,60.25 -110.36,86.67 -42.62,46.08 -68.31,62.4 -95.22,101.69 -453.42,661.95 117.43,1375.43 766.21,1264.69 401.3,-68.49 717.85,-444.75 648.1,-920.49 -56.07,-382.43 -455.55,-736.51 -919.4,-643.37z"/>
    <path class="fil2" d="M2231.38 262.56c6.16,44.83 -7,41.98 -56.63,43.29l-673.89 -0.78c-134.5,0.5 -140.41,-57.69 -31.06,-57.76l466.02 -0.03c45.59,-0.02 280.9,-10.89 295.56,15.28zm-952.11 227.3l1075.28 1.43c10.45,-30.37 -13.33,-339.23 -77.38,-398.76 -64.56,-60 -351.61,-30.76 -455.27,-30.77 -490.02,-0.05 -481.59,-45.69 -518.95,216.07 -7.05,49.36 -34.33,173.14 -23.69,212.03z"/>
    <path class="fil2" d="M364.75 702.79c152.47,-75.76 238.32,149.8 105.96,214.12 -136.44,66.31 -250.89,-142.09 -105.96,-214.12zm341.03 -205.61l-5.56 38.95 -49.36 -4.44c-29.67,28.5 -266.24,83.13 -301.72,71.07 -16.82,29.57 -28.11,26.89 -59.57,11.23 -19.55,27.21 -33.09,25.19 -76.15,25.22 -26.7,24.76 -23.15,19.95 -59.77,22.74 -10.52,30.88 -17.91,39.25 -52.05,51.43 3.01,40.93 4.3,35.84 -21.21,62.29 24.47,53.98 11.99,187.14 10.65,260.7 96.3,-5.86 320.54,12.05 394.3,-11.76 162.49,-52.45 148.4,-213.7 168.24,-235.4 57.8,-39.12 408,6.74 514.06,-13.85l55.06 -361.92c-151.04,7.76 -341.59,85.48 -502.11,110.98l-14.8 -27.23z"/>
    <path class="fil2" d="M1211.09 890.99c51.42,-23.76 74.95,-89.83 253.67,-171.67 282.75,-129.48 583.55,-93.32 838.04,73.37 48.39,31.69 79.21,65.93 118.46,94.69l-46.16 -341.46 -1112.38 1.11 -51.63 343.96z"/>
    <path class="fil2" d="M361.35 772.88l-2.95 70.29 33.73 23.61c157.33,9.52 84.91,-192.33 -30.78,-93.9z"/>
   </g>
   <path class="fil3" d="M2816.36 1522.6c-22.88,43.06 -61.54,71.9 -110.89,49.63 -3,-77.03 31.55,-24.4 59.08,-80.72 -27.06,-37.31 -34.72,-12.42 -53.82,-41.14 -42.65,-64.18 129.09,-76.03 105.63,72.24zm-157.78 108.15c266.17,8.5 261.96,-284.54 3.34,-273.74 8.36,104.68 9.85,169.57 -3.34,273.74z"/>
  </g>
 </g>
</svg>
